<svg width="22" height="22" viewBox="0 0 22 22" fill="none" xmlns="http://www.w3.org/2000/svg">
<path fill-rule="evenodd" clip-rule="evenodd" d="M20.2812 11C20.2812 13.4615 19.3034 15.8223 17.5628 17.5628C15.8223 19.3034 13.4615 20.2812 11 20.2812C8.53846 20.2812 6.17774 19.3034 4.43717 17.5628C2.69659 15.8223 1.71875 13.4615 1.71875 11C1.71875 8.53846 2.69659 6.17774 4.43717 4.43717C6.17774 2.69659 8.53846 1.71875 11 1.71875C13.4615 1.71875 15.8223 2.69659 17.5628 4.43717C19.3034 6.17774 20.2812 8.53846 20.2812 11ZM22 11C22 13.9174 20.8411 16.7153 18.7782 18.7782C16.7153 20.8411 13.9174 22 11 22C8.08262 22 5.28473 20.8411 3.22183 18.7782C1.15893 16.7153 0 13.9174 0 11C0 8.08262 1.15893 5.28473 3.22183 3.22183C5.28473 1.15893 8.08262 0 11 0C13.9174 0 16.7153 1.15893 18.7782 3.22183C20.8411 5.28473 22 8.08262 22 11ZM10.2712 7.60375L12.6362 9.96875H5.5V12.0312H12.6362L10.2712 14.3963L11.7287 15.8537L15.8537 11.7287C16.0469 11.5354 16.1553 11.2733 16.1553 11C16.1553 10.7267 16.0469 10.4646 15.8537 10.2712L11.7287 6.14625L10.2712 7.60375Z" fill="#333333"/>
</svg>
