<svg width="656" height="182" viewBox="0 0 656 182" fill="none" xmlns="http://www.w3.org/2000/svg">
<path d="M64.7921 114.31C64.153 119.082 61.3836 123.47 56.8675 126.069C52.3939 128.668 47.1961 128.838 42.7225 127.049C43.3616 122.277 46.1309 117.889 50.6471 115.29C55.1206 112.691 60.3611 112.521 64.7921 114.31ZM58.2308 100.463C55.2911 96.6715 50.6897 94.2429 45.4919 94.2429C40.3366 94.2429 35.6926 96.6715 32.7528 100.463C35.6926 104.255 40.294 106.684 45.4919 106.684C50.6897 106.684 55.2911 104.255 58.2308 100.463ZM74.2505 117.761C69.7769 120.36 67.0076 124.748 66.3685 129.52C70.7994 131.352 76.0399 131.139 80.5134 128.54C84.987 125.941 87.7563 121.553 88.3954 116.781C83.9218 114.992 78.724 115.162 74.2505 117.761ZM58.8699 76.3061C53.8851 74.9853 48.7725 76.1357 44.9806 79.0328C46.8553 83.4638 50.6471 87 55.6745 88.3634C60.6593 89.6842 65.772 88.5338 69.5639 85.6367C67.6892 81.2057 63.8973 77.6695 58.8699 76.3061ZM73.3984 69.5318C73.9948 64.76 72.461 59.7752 68.797 56.1112C65.1329 52.4471 60.1481 50.9133 55.3763 51.5098C54.7798 56.2816 56.3136 61.2664 59.9777 64.9305C63.6417 68.5946 68.6266 70.1283 73.3984 69.5318ZM139.99 64.9731C143.655 61.309 145.188 56.3242 144.592 51.5524C139.82 50.9559 134.835 52.4898 131.171 56.1538C127.507 59.8179 125.973 64.8027 126.57 69.5745C131.342 70.1284 136.326 68.5945 139.99 64.9731ZM87.8415 41.8384V41.3697V40.9011V40.4324V39.9638L87.8842 39.4951L87.9267 39.0264L87.9693 38.5578L88.012 38.0892L88.0545 37.6205L88.0972 37.1518L88.1824 36.6832L88.2676 36.2145L88.3528 35.7459L88.438 35.2772L88.5232 34.8512L88.6084 34.4251L88.6936 33.9991L88.8215 33.573L88.9493 33.1469L89.0771 32.7209L89.2049 32.2948L89.3327 31.8688L89.4605 31.4427L89.5884 31.0167L89.7587 30.5906L89.9292 30.1646L90.0996 29.7385L90.27 29.3125L90.4405 28.8864L90.6109 28.4604L90.7813 28.0769L90.9517 27.6934L91.1647 27.31L91.3778 26.9265L91.5908 26.5431L91.8038 26.1597L92.0168 25.7762L92.2299 25.3928L92.4429 25.0093L92.6559 24.6259L92.9116 24.2424L93.1672 23.859L93.4228 23.4755L93.6784 23.1347L93.9341 22.7938L94.1898 22.453L94.4453 22.1122L94.701 21.7713L94.9566 21.4305L95.2549 21.0896L95.5531 20.7488L95.8513 20.408L96.1495 20.0671L96.4478 19.7689L96.7461 19.4706L97.0443 19.1724L97.3425 18.8742L97.6407 18.5759L97.9816 18.2777L98.3225 17.9794L98.6633 17.6812L99.0041 17.383L99.3449 17.0847L99.6858 16.8291L100.027 16.5735L100.368 16.8291L100.708 17.0847L101.049 17.383L101.39 17.6812L101.731 17.9794L102.072 18.2777L102.413 18.5759L102.711 18.8742L103.009 19.1724L103.307 19.4706L103.605 19.7689L103.904 20.0671L104.202 20.408L104.5 20.7488L104.798 21.0896L105.097 21.4305L105.352 21.7713L105.608 22.1122L105.864 22.453L106.119 22.7938L106.375 23.1347L106.63 23.4755L106.886 23.859L107.142 24.2424L107.397 24.6259L107.61 25.0093L107.823 25.3928L108.036 25.7762L108.25 26.1597L108.463 26.5431L108.676 26.9265L108.889 27.31L109.102 27.6934L109.272 28.0769L109.442 28.4604L109.613 28.8864L109.783 29.3125L109.954 29.7385L110.124 30.1646L110.294 30.5906L110.465 31.0167L110.593 31.4427L110.721 31.8688L110.848 32.2948L110.976 32.7209L111.104 33.1469L111.232 33.573L111.36 33.9991L111.445 34.4251L111.53 34.8512L111.615 35.2772L111.7 35.7459L111.786 36.2145L111.871 36.6832L111.956 37.1518L111.999 37.6205L112.041 38.0892C112.041 38.2596 112.084 38.3874 112.084 38.5578L112.127 39.0264L112.169 39.4951L112.212 39.9638V40.4324V40.9011V41.3697V41.8384V42.3071V42.7757L112.169 43.2444L112.127 43.713L112.084 44.1817L112.041 44.6504L111.999 45.119L111.956 45.5877L111.871 46.0563L111.786 46.525L111.7 46.9937L111.615 47.4623L111.53 47.8884L111.445 48.3144L111.36 48.7405L111.232 49.1665L111.104 49.5926L110.976 50.0186L110.848 50.4447L110.721 50.8707L110.593 51.2968L110.465 51.7229L110.294 52.1489L110.124 52.575L109.954 53.001L109.783 53.4271L109.613 53.8531L109.442 54.2792L109.272 54.6626L109.102 55.046L108.889 55.4295L108.676 55.8129L108.463 56.1964L108.25 56.5799L108.036 56.9633L107.823 57.3467L107.61 57.7302L107.397 58.1136L107.142 58.4971L106.886 58.8805L106.63 59.264L106.375 59.6048L106.119 59.9456L105.864 60.2865L105.608 60.6274L105.352 60.9682L105.097 61.309L104.798 61.6499L104.5 61.9907L104.202 62.3316L103.904 62.6724L103.605 63.0133L103.307 63.3115L103.009 63.6097L102.711 63.908L102.413 64.2062L102.072 64.5044L101.731 64.8027L101.39 65.1009L101.049 65.3991L100.708 65.6974L100.368 65.953C100.24 66.0382 100.154 66.1234 100.027 66.2087L99.6858 65.953L99.3449 65.6974L99.0041 65.3991L98.6633 65.1009L98.3225 64.8027L97.9816 64.5044L97.6407 64.2062L97.3425 63.908L97.0443 63.6097L96.7461 63.3115L96.4478 63.0133L96.1495 62.6724L95.8513 62.3316L95.5531 61.9907L95.2549 61.6499L94.9566 61.309L94.701 60.9682L94.4453 60.6274L94.1898 60.2865L93.9341 59.9456L93.6784 59.6048L93.4228 59.264L93.1672 58.8805L92.9116 58.4971L92.6559 58.1136L92.4429 57.7302L92.2299 57.3467L92.0168 56.9633L91.8038 56.5799L91.5908 56.1964L91.3778 55.8129L91.1647 55.4295L90.9517 55.046L90.7813 54.6626L90.6109 54.2792L90.4405 53.8531L90.27 53.4271L90.0996 53.001L89.9292 52.575L89.7587 52.1489L89.5884 51.7229L89.4605 51.2968L89.3327 50.8707L89.2049 50.4447L89.0771 50.0186L88.9493 49.5926L88.8215 49.1665L88.6936 48.7405L88.6084 48.3144L88.5232 47.8884L88.438 47.4623L88.3528 46.9937L88.2676 46.525L88.1824 46.0563L88.0972 45.5877L88.0545 45.119L88.012 44.6504C88.012 44.48 87.9693 44.3521 87.9693 44.1817L87.9267 43.713L87.8842 43.2444L87.8415 42.7757V42.3071V41.8384ZM103.435 42.0941C103.179 47.8458 99.6006 53.5123 99.558 53.5975C99.0041 54.4496 99.2598 55.5999 100.112 56.1538C100.41 56.3668 100.793 56.452 101.134 56.452C101.731 56.452 102.327 56.1538 102.711 55.5999C102.881 55.3443 106.929 49.0387 107.184 42.2644C107.568 33.0191 102.796 26.8414 102.626 26.5857C101.986 25.7762 100.836 25.6484 100.027 26.2875C99.2172 26.9265 99.0893 28.0769 99.6858 28.8864C99.6858 28.929 103.776 34.2973 103.435 42.0941ZM91.9742 90.1102C94.0619 85.7645 94.1897 80.5666 91.889 75.9226C89.5883 71.2787 85.3278 68.2537 80.6413 67.3164C78.5536 71.6621 78.4258 76.86 80.7264 81.504C83.0271 86.1053 87.2876 89.1729 91.9742 90.1102ZM105.778 75.9226C103.478 80.5666 103.606 85.7645 105.693 90.1102C110.38 89.1729 114.64 86.1053 116.941 81.504C119.242 76.86 119.114 71.6621 117.026 67.3164C112.34 68.2537 108.079 71.2787 105.778 75.9226ZM154.476 94.2003C149.321 94.2003 144.677 96.6288 141.737 100.421C144.677 104.213 149.278 106.641 154.476 106.641C159.632 106.641 164.275 104.213 167.215 100.421C164.233 96.6714 159.632 94.2003 154.476 94.2003ZM149.321 115.29C144.847 112.691 139.65 112.521 135.176 114.31C135.815 119.082 138.584 123.47 143.101 126.069C147.574 128.668 152.772 128.838 157.246 127.049C156.564 122.277 153.795 117.889 149.321 115.29ZM195.974 105.661L160.952 166.331C155.627 175.576 145.657 181.328 135.006 181.328H64.9625C54.2685 181.328 44.3416 175.576 39.0159 166.331L3.99425 105.661C-1.33142 96.4158 -1.33142 84.9124 3.99425 75.667L39.0159 14.997C44.3416 5.7517 54.3112 0 64.9625 0H135.006C145.699 0 155.627 5.7517 160.952 14.997L195.974 75.667C201.342 84.9124 201.342 96.4158 195.974 105.661ZM189.157 79.6293L154.135 18.9594C150.173 12.1425 142.888 7.92458 135.006 7.92458H64.9625C57.0805 7.92458 49.795 12.1425 45.8327 18.9594L10.8111 79.6293C6.8488 86.4462 6.8488 94.882 10.8111 101.741L45.8327 162.411C49.795 169.228 57.0805 173.446 64.9625 173.446H88.6511C89.2475 170.677 89.5884 167.78 89.5884 164.797V164.712C89.5884 156.361 87.1173 148.65 82.8994 142.344C82.2603 141.407 82.0472 140.129 82.3455 138.893C82.6437 137.658 83.3253 136.763 84.2201 136.507C84.8591 136.294 85.5408 136.124 86.2225 135.954C87.3728 135.655 88.4806 136.465 88.9493 137.913C91.2926 144.773 95.3401 149.289 99.9415 149.289C104.543 149.289 108.59 144.773 110.934 137.913C111.445 136.465 112.51 135.655 113.66 135.954C114.342 136.124 115.024 136.294 115.663 136.507C116.6 136.763 117.282 137.658 117.537 138.893C117.836 140.129 117.623 141.407 116.984 142.344C112.766 148.693 110.294 156.404 110.294 164.712C110.294 164.755 110.294 164.755 110.294 164.797C110.294 167.78 110.635 170.677 111.232 173.446H134.92C142.802 173.446 150.088 169.228 154.05 162.411L189.072 101.741C193.119 94.882 193.119 86.4462 189.157 79.6293ZM146.126 88.8321C151.11 87.5113 154.945 83.9324 156.82 79.5015C152.985 76.6043 147.915 75.454 142.93 76.7747C137.945 78.0955 134.111 81.6744 132.236 86.1053C136.071 89.0025 141.141 90.1528 146.126 88.8321ZM125.718 117.761C121.244 115.162 116.046 114.992 111.573 116.781C112.212 121.553 114.981 125.941 119.455 128.54C123.928 131.139 129.126 131.31 133.6 129.52C132.961 124.791 130.191 120.36 125.718 117.761ZM99.8988 112.819C96.107 115.801 93.7211 120.403 93.7637 125.6C93.8063 130.756 96.2774 135.357 100.112 138.297C103.904 135.314 106.29 130.713 106.247 125.515C106.162 120.317 103.691 115.716 99.8988 112.819ZM127.677 101.358C124.738 97.5662 120.136 95.1377 114.939 95.1377C109.783 95.1377 105.139 97.5662 102.199 101.358C105.139 105.15 109.741 107.578 114.939 107.578C120.136 107.578 124.738 105.15 127.677 101.358ZM95.4679 101.358C92.5282 97.5662 87.9267 95.1377 82.7289 95.1377C77.5736 95.1377 72.9297 97.5662 69.9899 101.358C72.9297 105.15 77.531 107.578 82.7289 107.578C87.8841 107.578 92.4855 105.15 95.4679 101.358Z" fill="white"/>
<path d="M271.768 80.5761C266.347 80.5761 261.432 79.4107 257.024 77.0801C252.667 74.6987 249.221 71.4307 246.688 67.2761C244.205 63.0707 242.964 58.3334 242.964 53.0641C242.964 47.7947 244.205 43.0827 246.688 38.9281C249.221 34.7227 252.667 31.4547 257.024 29.1241C261.432 26.7427 266.372 25.5521 271.844 25.5521C276.455 25.5521 280.609 26.3627 284.308 27.9841C288.057 29.6054 291.199 31.9361 293.732 34.9761L285.828 42.2721C282.231 38.1174 277.772 36.0401 272.452 36.0401C269.159 36.0401 266.22 36.7747 263.636 38.2441C261.052 39.6627 259.025 41.6641 257.556 44.2481C256.137 46.8321 255.428 49.7707 255.428 53.0641C255.428 56.3574 256.137 59.2961 257.556 61.8801C259.025 64.4641 261.052 66.4907 263.636 67.9601C266.22 69.3787 269.159 70.0881 272.452 70.0881C277.772 70.0881 282.231 67.9854 285.828 63.7801L293.732 71.0761C291.199 74.1667 288.057 76.5227 284.308 78.1441C280.559 79.7654 276.379 80.5761 271.768 80.5761ZM327.547 80.5761C322.025 80.5761 317.034 79.3854 312.575 77.0041C308.167 74.6227 304.697 71.3547 302.163 67.2001C299.681 62.9947 298.439 58.2827 298.439 53.0641C298.439 47.8454 299.681 43.1587 302.163 39.0041C304.697 34.7987 308.167 31.5054 312.575 29.1241C317.034 26.7427 322.025 25.5521 327.547 25.5521C333.07 25.5521 338.035 26.7427 342.443 29.1241C346.851 31.5054 350.322 34.7987 352.855 39.0041C355.389 43.1587 356.655 47.8454 356.655 53.0641C356.655 58.2827 355.389 62.9947 352.855 67.2001C350.322 71.3547 346.851 74.6227 342.443 77.0041C338.035 79.3854 333.07 80.5761 327.547 80.5761ZM327.547 70.0881C330.689 70.0881 333.526 69.3787 336.059 67.9601C338.593 66.4907 340.569 64.4641 341.987 61.8801C343.457 59.2961 344.191 56.3574 344.191 53.0641C344.191 49.7707 343.457 46.8321 341.987 44.2481C340.569 41.6641 338.593 39.6627 336.059 38.2441C333.526 36.7747 330.689 36.0401 327.547 36.0401C324.406 36.0401 321.569 36.7747 319.035 38.2441C316.502 39.6627 314.501 41.6641 313.031 44.2481C311.613 46.8321 310.903 49.7707 310.903 53.0641C310.903 56.3574 311.613 59.2961 313.031 61.8801C314.501 64.4641 316.502 66.4907 319.035 67.9601C321.569 69.3787 324.406 70.0881 327.547 70.0881ZM375.306 26.4641L386.326 42.5761L397.346 26.4641H411.786L394.078 51.9241L413.23 79.6641H398.714L386.326 62.0321L374.09 79.6641H359.878L378.878 52.4561L361.094 26.4641H375.306ZM443.419 26.4641C448.131 26.4641 452.209 27.2494 455.655 28.8201C459.151 30.3907 461.836 32.6201 463.711 35.5081C465.585 38.3961 466.523 41.8161 466.523 45.7681C466.523 49.6694 465.585 53.0894 463.711 56.0281C461.836 58.9161 459.151 61.1454 455.655 62.7161C452.209 64.2361 448.131 64.9961 443.419 64.9961H432.703V79.6641H420.391V26.4641H443.419ZM442.735 54.9641C446.433 54.9641 449.245 54.1787 451.171 52.6081C453.096 50.9867 454.059 48.7067 454.059 45.7681C454.059 42.7787 453.096 40.4987 451.171 38.9281C449.245 37.3067 446.433 36.4961 442.735 36.4961H432.703V54.9641H442.735ZM509.517 68.2641H484.817L480.105 79.6641H467.489L491.201 26.4641H503.361L527.149 79.6641H514.229L509.517 68.2641ZM505.641 58.9161L497.205 38.5481L488.769 58.9161H505.641ZM584.516 26.4641V79.6641H572.204V57.8521H548.036V79.6641H535.724V26.4641H548.036V47.4401H572.204V26.4641H584.516ZM599.365 26.4641H611.601V61.1201L636.985 26.4641H648.537V79.6641H636.377V45.0841L610.993 79.6641H599.365V26.4641ZM294.036 102.464V155.664H281.876V112.496H263.636L263.256 123.592C263.003 131.141 262.395 137.272 261.432 141.984C260.469 146.645 258.848 150.243 256.568 152.776C254.339 155.259 251.197 156.5 247.144 156.5C245.472 156.5 243.445 156.221 241.064 155.664L241.824 145.252C242.483 145.455 243.217 145.556 244.028 145.556C246.967 145.556 249.019 143.833 250.184 140.388C251.349 136.892 252.084 131.445 252.388 124.048L253.148 102.464H294.036ZM350.035 145.784V155.664H308.843V102.464H349.047V112.344H321.079V123.896H345.779V133.472H321.079V145.784H350.035ZM386.507 156.576C381.086 156.576 376.171 155.411 371.763 153.08C367.406 150.699 363.961 147.431 361.427 143.276C358.945 139.071 357.703 134.333 357.703 129.064C357.703 123.795 358.945 119.083 361.427 114.928C363.961 110.723 367.406 107.455 371.763 105.124C376.171 102.743 381.111 101.552 386.583 101.552C391.194 101.552 395.349 102.363 399.047 103.984C402.797 105.605 405.938 107.936 408.471 110.976L400.567 118.272C396.97 114.117 392.511 112.04 387.191 112.04C383.898 112.04 380.959 112.775 378.375 114.244C375.791 115.663 373.765 117.664 372.295 120.248C370.877 122.832 370.167 125.771 370.167 129.064C370.167 132.357 370.877 135.296 372.295 137.88C373.765 140.464 375.791 142.491 378.375 143.96C380.959 145.379 383.898 146.088 387.191 146.088C392.511 146.088 396.97 143.985 400.567 139.78L408.471 147.076C405.938 150.167 402.797 152.523 399.047 154.144C395.298 155.765 391.118 156.576 386.507 156.576Z" fill="white"/>
</svg>
