<svg width="472" height="142" viewBox="0 0 472 142" fill="none" xmlns="http://www.w3.org/2000/svg">
<path d="M153.328 59.1679L125.928 11.7336C121.761 4.50008 113.961 0 105.627 0H50.826C42.4592 0 34.6924 4.50008 30.5256 11.7336L3.12506 59.1679C-1.04169 66.4014 -1.04169 75.4015 3.12506 82.635L30.5256 130.069C34.6924 137.303 42.4925 141.803 50.826 141.803H105.627C113.994 141.803 121.761 137.303 125.928 130.069L153.328 82.6017C157.528 75.4015 157.528 66.4014 153.328 59.1679Z" fill="#288841"/>
<path d="M50.6928 89.4018C50.1928 93.1352 48.0261 96.5686 44.4927 98.602C40.9926 100.635 36.9259 100.769 33.4258 99.3687C33.9258 95.6353 36.0925 92.2019 39.6259 90.1685C43.126 88.1351 47.2261 88.0018 50.6928 89.4018Z" fill="white"/>
<path d="M45.5594 78.5682C43.2593 75.6015 39.6592 73.7015 35.5925 73.7015C31.5591 73.7015 27.9257 75.6015 25.6256 78.5682C27.9257 81.535 31.5257 83.435 35.5925 83.435C39.6592 83.435 43.2593 81.535 45.5594 78.5682Z" fill="white"/>
<path d="M58.093 92.1018C54.5929 94.1352 52.4262 97.5686 51.9262 101.302C55.3929 102.735 59.493 102.569 62.9931 100.535C66.4932 98.502 68.6599 95.0686 69.1599 91.3352C65.6598 89.9351 61.5931 90.1018 58.093 92.1018Z" fill="white"/>
<path d="M46.0593 59.6679C42.1592 58.6345 38.1591 59.5345 35.1924 61.8012C36.6591 65.268 39.6258 68.0347 43.5592 69.1014C47.4593 70.1347 51.4594 69.2347 54.4261 66.968C52.9594 63.5013 49.9927 60.7346 46.0593 59.6679Z" fill="white"/>
<path d="M57.4263 54.3678C57.8929 50.6344 56.6929 46.7343 53.8262 43.8676C50.9595 41.0009 47.0594 39.8008 43.326 40.2675C42.8593 44.0009 44.0593 47.901 46.926 50.7677C49.7928 53.6678 53.6928 54.8345 57.4263 54.3678Z" fill="white"/>
<path d="M109.527 50.801C112.394 47.9343 113.594 44.0342 113.127 40.3008C109.394 39.8341 105.494 41.0342 102.627 43.9009C99.7604 46.7676 98.5604 50.6677 99.0271 54.4011C102.76 54.8344 106.661 53.6677 109.527 50.801Z" fill="white"/>
<path d="M68.7266 32.7007V32.334V31.9673V31.6006V31.2339L68.7599 30.8673L68.7932 30.5006L68.8266 30.1339L68.8599 29.7672L68.8932 29.4006L68.9266 29.0339L68.9932 28.6672L69.0599 28.3005L69.1266 27.9339L69.1932 27.5672L69.2599 27.2339L69.3266 26.9005L69.3932 26.5672L69.4932 26.2338L69.5932 25.9005L69.6933 25.5672L69.7932 25.2338L69.8933 24.9005L69.9933 24.5671L70.0933 24.2338L70.2266 23.9005L70.3599 23.5671L70.4933 23.2338L70.6266 22.9004L70.7599 22.5671L70.8933 22.2338L71.0266 21.9337L71.1599 21.6337L71.3266 21.3338L71.4933 21.0337L71.66 20.7337L71.8266 20.4337L71.9933 20.1337L72.16 19.8337L72.3266 19.5337L72.4933 19.2337L72.6933 18.9337L72.8933 18.6337L73.0933 18.3337L73.2933 18.067L73.4933 17.8003L73.6933 17.5337L73.8933 17.267L74.0933 17.0003L74.2933 16.7336L74.5267 16.467L74.76 16.2003L74.9934 15.9336L75.2267 15.667L75.46 15.4336L75.6934 15.2003L75.9267 14.9669L76.16 14.7336L76.3934 14.5003L76.6601 14.2669L76.9267 14.0336L77.1934 13.8002L77.4601 13.5669L77.7267 13.3336L77.9934 13.1336L78.2601 12.9336L78.5268 13.1336L78.7934 13.3336L79.0601 13.5669L79.3268 13.8002L79.5935 14.0336L79.8601 14.2669L80.1268 14.5003L80.3601 14.7336L80.5935 14.9669L80.8268 15.2003L81.0601 15.4336L81.2935 15.667L81.5268 15.9336L81.7602 16.2003L81.9935 16.467L82.2268 16.7336L82.4268 17.0003L82.6268 17.267L82.8269 17.5337L83.0269 17.8003L83.2269 18.067L83.4269 18.3337L83.6269 18.6337L83.8269 18.9337L84.0269 19.2337L84.1935 19.5337L84.3602 19.8337L84.5269 20.1337L84.6936 20.4337L84.8602 20.7337L85.0269 21.0337L85.1936 21.3338L85.3602 21.6337L85.4936 21.9337L85.6269 22.2338L85.7602 22.5671L85.8936 22.9004L86.0269 23.2338L86.1603 23.5671L86.2936 23.9005L86.4269 24.2338L86.5269 24.5671L86.6269 24.9005L86.7269 25.2338L86.8269 25.5672L86.9269 25.9005L87.0269 26.2338L87.1269 26.5672L87.1936 26.9005L87.2603 27.2339L87.3269 27.5672L87.3936 27.9339L87.4603 28.3005L87.5269 28.6672L87.5936 29.0339L87.6269 29.4006L87.6603 29.7672C87.6603 29.9006 87.6936 30.0006 87.6936 30.1339L87.727 30.5006L87.7603 30.8673L87.7936 31.2339V31.6006V31.9673V32.334V32.7007V33.0673V33.434L87.7603 33.8007L87.727 34.1674L87.6936 34.534L87.6603 34.9007L87.6269 35.2674L87.5936 35.634L87.5269 36.0007L87.4603 36.3674L87.3936 36.7341L87.3269 37.1007L87.2603 37.4341L87.1936 37.7674L87.1269 38.1007L87.0269 38.4341L86.9269 38.7674L86.8269 39.1008L86.7269 39.4341L86.6269 39.7674L86.5269 40.1008L86.4269 40.4341L86.2936 40.7675L86.1603 41.1008L86.0269 41.4342L85.8936 41.7675L85.7602 42.1008L85.6269 42.4342L85.4936 42.7342L85.3602 43.0342L85.1936 43.3342L85.0269 43.6342L84.8602 43.9342L84.6936 44.2342L84.5269 44.5342L84.3602 44.8342L84.1935 45.1342L84.0269 45.4342L83.8269 45.7342L83.6269 46.0343L83.4269 46.3343L83.2269 46.6009L83.0269 46.8676L82.8269 47.1343L82.6268 47.4009L82.4268 47.6676L82.2268 47.9343L81.9935 48.201L81.7602 48.4676L81.5268 48.7343L81.2935 49.001L81.0601 49.2676L80.8268 49.501L80.5935 49.7343L80.3601 49.9677L80.1268 50.201L79.8601 50.4343L79.5935 50.6677L79.3268 50.901L79.0601 51.1343L78.7934 51.3677L78.5268 51.5677C78.4268 51.6344 78.3601 51.701 78.2601 51.7677L77.9934 51.5677L77.7267 51.3677L77.4601 51.1343L77.1934 50.901L76.9267 50.6677L76.6601 50.4343L76.3934 50.201L76.16 49.9677L75.9267 49.7343L75.6934 49.501L75.46 49.2676L75.2267 49.001L74.9934 48.7343L74.76 48.4676L74.5267 48.201L74.2933 47.9343L74.0933 47.6676L73.8933 47.4009L73.6933 47.1343L73.4933 46.8676L73.2933 46.6009L73.0933 46.3343L72.8933 46.0343L72.6933 45.7342L72.4933 45.4342L72.3266 45.1342L72.16 44.8342L71.9933 44.5342L71.8266 44.2342L71.66 43.9342L71.4933 43.6342L71.3266 43.3342L71.1599 43.0342L71.0266 42.7342L70.8933 42.4342L70.7599 42.1008L70.6266 41.7675L70.4933 41.4342L70.3599 41.1008L70.2266 40.7675L70.0933 40.4341L69.9933 40.1008L69.8933 39.7674L69.7932 39.4341L69.6933 39.1008L69.5932 38.7674L69.4932 38.4341L69.3932 38.1007L69.3266 37.7674L69.2599 37.4341L69.1932 37.1007L69.1266 36.7341L69.0599 36.3674L68.9932 36.0007L68.9266 35.634L68.8932 35.2674L68.8599 34.9007C68.8599 34.7674 68.8266 34.6674 68.8266 34.534L68.7932 34.1674L68.7599 33.8007L68.7266 33.434V33.0673V32.7007Z" fill="white"/>
<path d="M80.9267 32.9006C80.7267 37.4007 77.9266 41.8341 77.8933 41.9008C77.46 42.5675 77.66 43.4675 78.3266 43.9008C78.56 44.0675 78.86 44.1342 79.1267 44.1342C79.5933 44.1342 80.06 43.9008 80.36 43.4675C80.4934 43.2675 83.6601 38.3341 83.8601 33.034C84.1601 25.8005 80.4267 20.967 80.2933 20.767C79.7933 20.1337 78.8933 20.0337 78.26 20.5337C77.6266 21.0337 77.5266 21.9337 77.9933 22.5671C77.9933 22.6004 81.1934 26.8005 80.9267 32.9006Z" fill="#288841"/>
<path d="M71.9599 70.4681C73.5933 67.068 73.6933 63.0013 71.8933 59.3679C70.0932 55.7345 66.7598 53.3677 63.0931 52.6344C61.4597 56.0345 61.3597 60.1012 63.1598 63.7346C64.9598 67.3347 68.2932 69.7347 71.9599 70.4681Z" fill="white"/>
<path d="M82.7601 59.3679C80.9601 63.0013 81.0601 67.068 82.6934 70.4681C86.3602 69.7347 89.6936 67.3347 91.4936 63.7346C93.2936 60.1012 93.1936 56.0345 91.5603 52.6344C87.8935 53.3677 84.5601 55.7678 82.7601 59.3679Z" fill="white"/>
<path d="M120.861 73.6682C116.827 73.6682 113.194 75.5682 110.894 78.5349C113.194 81.5016 116.794 83.4017 120.861 83.4017C124.894 83.4017 128.528 81.5016 130.828 78.5349C128.494 75.6015 124.894 73.6682 120.861 73.6682Z" fill="white"/>
<path d="M116.827 90.1685C113.327 88.1351 109.261 88.0018 105.761 89.4018C106.261 93.1352 108.427 96.5686 111.961 98.602C115.461 100.635 119.528 100.769 123.028 99.3687C122.494 95.6353 120.328 92.2019 116.827 90.1685Z" fill="white"/>
<path d="M114.327 69.468C118.228 68.4346 121.228 65.6346 122.694 62.1679C119.694 59.9012 115.727 59.0011 111.827 60.0345C107.927 61.0679 104.927 63.8679 103.461 67.3347C106.461 69.6014 110.427 70.5014 114.327 69.468Z" fill="white"/>
<path d="M98.3604 92.1019C94.8603 90.0685 90.7935 89.9352 87.2935 91.3352C87.7935 95.0686 89.9602 98.502 93.4603 100.535C96.9603 102.569 101.027 102.702 104.527 101.302C104.027 97.602 101.86 94.1353 98.3604 92.1019Z" fill="white"/>
<path d="M78.16 88.2352C75.1932 90.5685 73.3265 94.1686 73.3599 98.2354C73.3932 102.269 75.3266 105.869 78.3266 108.169C81.2934 105.836 83.1601 102.235 83.1267 98.1687C83.0601 94.102 81.1267 90.5019 78.16 88.2352Z" fill="white"/>
<path d="M99.8938 79.2682C97.5938 76.3015 93.9937 74.4015 89.927 74.4015C85.8935 74.4015 82.2601 76.3015 79.9601 79.2682C82.2601 82.235 85.8602 84.135 89.927 84.135C93.9937 84.135 97.5938 82.235 99.8938 79.2682Z" fill="white"/>
<path d="M74.6933 79.2682C72.3933 76.3015 68.7932 74.4015 64.7265 74.4015C60.693 74.4015 57.0596 76.3015 54.7596 79.2682C57.0596 82.235 60.6597 84.135 64.7265 84.135C68.7599 84.135 72.3599 82.235 74.6933 79.2682Z" fill="white"/>
<path fill-rule="evenodd" clip-rule="evenodd" d="M69.9265 129.269C69.9265 129.303 69.9265 129.303 69.9265 129.336C69.9265 132.803 69.3599 136.136 68.3599 139.269C68.1265 140.036 68.1265 140.836 68.3599 141.603C68.3932 141.669 68.4265 141.736 68.4598 141.836H87.8936C87.9269 141.769 87.9602 141.703 87.9936 141.603C88.2603 140.836 88.2603 140.036 87.9936 139.269C86.9936 136.169 86.4269 132.836 86.4269 129.336C86.4269 129.303 86.4269 129.303 86.4269 129.269C86.4269 122.636 88.3936 116.502 91.7603 111.469C92.2603 110.702 92.427 109.702 92.1937 108.702C91.9603 107.702 91.427 107.035 90.6936 106.802C90.1603 106.635 89.6269 106.502 89.0936 106.369C88.1936 106.135 87.3269 106.769 86.9269 107.935C85.0602 113.402 81.8268 117.002 78.1934 117.002C74.5266 117.002 71.3266 113.402 69.4599 107.935C69.0599 106.769 68.1932 106.169 67.2932 106.369C66.7598 106.502 66.2265 106.635 65.6931 106.802C64.9598 107.002 64.4264 107.702 64.1931 108.702C63.9598 109.702 64.1264 110.702 64.6264 111.469C67.9598 116.502 69.9265 122.636 69.9265 129.269Z" fill="white"/>
<path d="M199.05 65.5661C195.198 65.5661 191.706 64.7381 188.574 63.0821C185.478 61.3901 183.03 59.0681 181.23 56.1161C179.466 53.1281 178.584 49.7621 178.584 46.0181C178.584 42.2741 179.466 38.9261 181.23 35.9741C183.03 32.9861 185.478 30.6641 188.574 29.0081C191.706 27.3161 195.216 26.4701 199.104 26.4701C202.38 26.4701 205.332 27.0461 207.96 28.1981C210.624 29.3501 212.856 31.0061 214.656 33.1661L209.04 38.3501C206.484 35.3981 203.316 33.9221 199.536 33.9221C197.196 33.9221 195.108 34.4441 193.272 35.4881C191.436 36.4961 189.996 37.9181 188.952 39.7541C187.944 41.5901 187.44 43.6781 187.44 46.0181C187.44 48.3581 187.944 50.4461 188.952 52.2821C189.996 54.1181 191.436 55.5581 193.272 56.6021C195.108 57.6101 197.196 58.1141 199.536 58.1141C203.316 58.1141 206.484 56.6201 209.04 53.6321L214.656 58.8161C212.856 61.0121 210.624 62.6861 207.96 63.8381C205.296 64.9901 202.326 65.5661 199.05 65.5661ZM238.683 65.5661C234.759 65.5661 231.213 64.7201 228.045 63.0281C224.913 61.3361 222.447 59.0141 220.647 56.0621C218.883 53.0741 218.001 49.7261 218.001 46.0181C218.001 42.3101 218.883 38.9801 220.647 36.0281C222.447 33.0401 224.913 30.7001 228.045 29.0081C231.213 27.3161 234.759 26.4701 238.683 26.4701C242.607 26.4701 246.135 27.3161 249.267 29.0081C252.399 30.7001 254.865 33.0401 256.665 36.0281C258.465 38.9801 259.365 42.3101 259.365 46.0181C259.365 49.7261 258.465 53.0741 256.665 56.0621C254.865 59.0141 252.399 61.3361 249.267 63.0281C246.135 64.7201 242.607 65.5661 238.683 65.5661ZM238.683 58.1141C240.915 58.1141 242.931 57.6101 244.731 56.6021C246.531 55.5581 247.935 54.1181 248.943 52.2821C249.987 50.4461 250.509 48.3581 250.509 46.0181C250.509 43.6781 249.987 41.5901 248.943 39.7541C247.935 37.9181 246.531 36.4961 244.731 35.4881C242.931 34.4441 240.915 33.9221 238.683 33.9221C236.451 33.9221 234.435 34.4441 232.635 35.4881C230.835 36.4961 229.413 37.9181 228.369 39.7541C227.361 41.5901 226.857 43.6781 226.857 46.0181C226.857 48.3581 227.361 50.4461 228.369 52.2821C229.413 54.1181 230.835 55.5581 232.635 56.6021C234.435 57.6101 236.451 58.1141 238.683 58.1141ZM272.617 27.1181L280.447 38.5661L288.277 27.1181H298.537L285.955 45.2081L299.563 64.9181H289.249L280.447 52.3901L271.753 64.9181H261.655L275.155 45.5861L262.519 27.1181H272.617ZM321.013 27.1181C324.361 27.1181 327.259 27.6761 329.707 28.7921C332.191 29.9081 334.099 31.4921 335.431 33.5441C336.763 35.5961 337.429 38.0261 337.429 40.8341C337.429 43.6061 336.763 46.0361 335.431 48.1241C334.099 50.1761 332.191 51.7601 329.707 52.8761C327.259 53.9561 324.361 54.4961 321.013 54.4961H313.399V64.9181H304.651V27.1181H321.013ZM320.527 47.3681C323.155 47.3681 325.153 46.8101 326.521 45.6941C327.889 44.5421 328.573 42.9221 328.573 40.8341C328.573 38.7101 327.889 37.0901 326.521 35.9741C325.153 34.8221 323.155 34.2461 320.527 34.2461H313.399V47.3681H320.527ZM367.977 56.8181H350.427L347.079 64.9181H338.115L354.963 27.1181H363.603L380.505 64.9181H371.325L367.977 56.8181ZM365.223 50.1761L359.229 35.7041L353.235 50.1761H365.223ZM421.266 27.1181V64.9181H412.518V49.4201H395.346V64.9181H386.598V27.1181H395.346V42.0221H412.518V27.1181H421.266ZM431.816 27.1181H440.51V51.7421L458.546 27.1181H466.754V64.9181H458.114V40.3481L440.078 64.9181H431.816V27.1181ZM214.872 77.1181V114.918H206.232V84.2461H193.272L193.002 92.1301C192.822 97.4941 192.39 101.85 191.706 105.198C191.022 108.51 189.87 111.066 188.25 112.866C186.666 114.63 184.434 115.512 181.554 115.512C180.366 115.512 178.926 115.314 177.234 114.918L177.774 107.52C178.242 107.664 178.764 107.736 179.34 107.736C181.428 107.736 182.886 106.512 183.714 104.064C184.542 101.58 185.064 97.7101 185.28 92.4541L185.82 77.1181H214.872ZM254.661 107.898V114.918H225.393V77.1181H253.959V84.1381H234.087V92.3461H251.637V99.1501H234.087V107.898H254.661ZM280.575 115.566C276.723 115.566 273.231 114.738 270.099 113.082C267.003 111.39 264.555 109.068 262.755 106.116C260.991 103.128 260.109 99.7621 260.109 96.0181C260.109 92.2741 260.991 88.9261 262.755 85.9741C264.555 82.9861 267.003 80.6641 270.099 79.0081C273.231 77.3161 276.741 76.4701 280.629 76.4701C283.905 76.4701 286.857 77.0461 289.485 78.1981C292.149 79.3501 294.381 81.0061 296.181 83.1661L290.565 88.3501C288.009 85.3981 284.841 83.9221 281.061 83.9221C278.721 83.9221 276.633 84.4441 274.797 85.4881C272.961 86.4961 271.521 87.9181 270.477 89.7541C269.469 91.5901 268.965 93.6781 268.965 96.0181C268.965 98.3581 269.469 100.446 270.477 102.282C271.521 104.118 272.961 105.558 274.797 106.602C276.633 107.61 278.721 108.114 281.061 108.114C284.841 108.114 288.009 106.62 290.565 103.632L296.181 108.816C294.381 111.012 292.149 112.686 289.485 113.838C286.821 114.99 283.851 115.566 280.575 115.566Z" fill="black"/>
</svg>
