<?xml version="1.0" encoding="UTF-8" standalone="no" ?>
<!DOCTYPE svg PUBLIC "-//W3C//DTD SVG 1.1//EN" "http://www.w3.org/Graphics/SVG/1.1/DTD/svg11.dtd">
<svg xmlns="http://www.w3.org/2000/svg" xmlns:xlink="http://www.w3.org/1999/xlink" version="1.1" width="124" height="124" viewBox="0 0 124 124" xml:space="preserve">
<desc>Created with Fabric.js 4.6.0</desc>
<defs>
</defs>
<g transform="matrix(1.91 0 0 1.91 62.17 62.17)" id="zWzMtuwem0gsTP9hoI8Xx"  >
<g style="" vector-effect="non-scaling-stroke"   >
		<g transform="matrix(1 0 0 1 0 0)" id="qwXaaoqD4HmvxYHYZcIVt"  >
<path style="stroke: none; stroke-width: 1; stroke-dasharray: none; stroke-linecap: butt; stroke-dashoffset: 0; stroke-linejoin: miter; stroke-miterlimit: 4; fill: rgb(246,246,246); fill-rule: nonzero; opacity: 1;" vector-effect="non-scaling-stroke"  transform=" translate(-32, -32)" d="M 0 32 C 0 14.326889999999999 14.32689 0 32 0 C 49.67311 0 64 14.32689 64 32 C 64 49.67311 49.67311 64 32 64 C 14.326889999999999 64 0 49.67311 0 32 z" stroke-linecap="round" />
</g>
		<g transform="matrix(1 0 0 1 0 0.66)" id="K0rPo6VWR3FEnm350vxEo"  >
<path style="stroke: none; stroke-width: 1; stroke-dasharray: none; stroke-linecap: butt; stroke-dashoffset: 0; stroke-linejoin: miter; stroke-miterlimit: 4; fill: rgb(149,222,29); fill-rule: nonzero; opacity: 1;" vector-effect="non-scaling-stroke"  transform=" translate(-57, -46.66)" d="M 70.8994 30.25 L 43.1006 30.25 C 41.9136 30.25 40.7752 30.7215 39.9359 31.5609 C 39.0965 32.4002 38.625 33.5386 38.625 34.7256 L 38.625 46 C 38.625 46.3481 38.7633 46.6819 39.0094 46.9281 C 39.2556 47.1742 39.5894 47.3125 39.9375 47.3125 C 40.2856 47.3125 40.6194 47.1742 40.8656 46.9281 C 41.1117 46.6819 41.25 46.3481 41.25 46 L 41.25 34.7256 C 41.25 34.2348 41.445 33.7641 41.792 33.417 C 42.1391 33.07 42.6098 32.875 43.1006 32.875 L 70.8994 32.875 C 71.3902 32.875 71.8609 33.07 72.208 33.417 C 72.555 33.7641 72.75 34.2348 72.75 34.7256 L 72.75 58.5869 C 72.75 59.0777 72.555 59.5484 72.208 59.8955 C 71.8609 60.2425 71.3902 60.4375 70.8994 60.4375 L 43.1006 60.4375 C 42.6098 60.4375 42.1391 60.2425 41.792 59.8955 C 41.445 59.5484 41.25 59.0777 41.25 58.5869 L 41.25 51.25 C 41.25 50.9019 41.1117 50.5681 40.8656 50.3219 C 40.6194 50.0758 40.2856 49.9375 39.9375 49.9375 C 39.5894 49.9375 39.2556 50.0758 39.0094 50.3219 C 38.7633 50.5681 38.625 50.9019 38.625 51.25 L 38.625 58.5869 C 38.625 59.1746 38.7408 59.7566 38.9657 60.2996 C 39.1906 60.8426 39.5203 61.336 39.9359 61.7516 C 40.3515 62.1672 40.8449 62.4969 41.3879 62.7218 C 41.9309 62.9467 42.5129 63.0625 43.1006 63.0625 L 70.8994 63.0625 C 71.4871 63.0625 72.0691 62.9467 72.6121 62.7218 C 73.1551 62.4969 73.6485 62.1672 74.0641 61.7516 C 74.4797 61.336 74.8094 60.8426 75.0343 60.2996 C 75.2592 59.7566 75.375 59.1746 75.375 58.5869 L 75.375 34.7256 C 75.375 33.5386 74.9035 32.4002 74.0641 31.5609 C 73.2248 30.7215 72.0864 30.25 70.8994 30.25 Z" stroke-linecap="round" />
</g>
		<g transform="matrix(1 0 0 1 11.81 -9.19)" id="_o9bVTwz2aUOp6x1Ppc3T"  >
<path style="stroke: none; stroke-width: 1; stroke-dasharray: none; stroke-linecap: butt; stroke-dashoffset: 0; stroke-linejoin: miter; stroke-miterlimit: 4; fill: rgb(149,222,29); fill-rule: nonzero; opacity: 1;" vector-effect="non-scaling-stroke"  transform=" translate(-68.81, -36.81)" d="M 68.8129 38.1251 C 68.9835 38.1272 69.1529 38.0959 69.3116 38.0332 C 69.4685 37.9571 69.6142 37.8599 69.7447 37.7444 C 69.8607 37.6169 69.9539 37.4704 70.0204 37.3113 C 70.0898 37.1542 70.1257 36.9843 70.1257 36.8126 C 70.1257 36.6408 70.0898 36.4709 70.0204 36.3138 C 69.9579 36.1527 69.8642 36.0055 69.7447 35.8807 C 69.5602 35.6986 69.3258 35.5752 69.0712 35.5261 C 68.8166 35.4771 68.5531 35.5046 68.3141 35.6051 C 68.1551 35.6715 68.0086 35.7648 67.881 35.8807 C 67.7615 36.0055 67.6678 36.1527 67.6054 36.3138 C 67.5381 36.4716 67.5024 36.641 67.5004 36.8126 C 67.4959 36.9847 67.5319 37.1555 67.6054 37.3113 C 67.6718 37.4704 67.7651 37.6169 67.881 37.7444 C 68.0036 37.8661 68.1491 37.9623 68.309 38.0276 C 68.4689 38.093 68.6401 38.1261 68.8129 38.1251 Z" stroke-linecap="round" />
</g>
		<g transform="matrix(1 0 0 1 -8.53 2.63)" id="rYAxzDQQL1wIkivBH-CyJ"  >
<path style="stroke: none; stroke-width: 1; stroke-dasharray: none; stroke-linecap: butt; stroke-dashoffset: 0; stroke-linejoin: miter; stroke-miterlimit: 4; fill: rgb(149,222,29); fill-rule: nonzero; opacity: 1;" vector-effect="non-scaling-stroke"  transform=" translate(-48.47, -48.63)" d="M 48.2981 46 L 50.4375 46 C 50.7856 46 51.1194 45.8617 51.3656 45.6156 C 51.6117 45.3694 51.75 45.0356 51.75 44.6875 C 51.75 44.3394 51.6117 44.0056 51.3656 43.7594 C 51.1194 43.5133 50.7856 43.375 50.4375 43.375 L 48.2981 43.375 C 47.8896 43.375 47.4851 43.4555 47.1077 43.6118 C 46.7303 43.7681 46.3874 43.9972 46.0986 44.2861 C 45.8097 44.5749 45.5806 44.9178 45.4243 45.2952 C 45.268 45.6726 45.1875 46.0771 45.1875 46.4856 L 45.1875 50.7644 C 45.1875 51.5894 45.5152 52.3806 46.0986 52.9639 C 46.6819 53.5473 47.4731 53.875 48.2981 53.875 L 50.4375 53.875 C 50.7856 53.875 51.1194 53.7367 51.3656 53.4906 C 51.6117 53.2444 51.75 52.9106 51.75 52.5625 C 51.75 52.2144 51.6117 51.8806 51.3656 51.6344 C 51.1194 51.3883 50.7856 51.25 50.4375 51.25 L 48.2981 51.25 C 48.1704 51.2467 48.0488 51.1944 47.9584 51.1041 C 47.868 51.0137 47.8158 50.8921 47.8125 50.7644 L 47.8125 49.9375 L 50.4375 49.9375 C 50.7856 49.9375 51.1194 49.7992 51.3656 49.5531 C 51.6117 49.3069 51.75 48.9731 51.75 48.625 C 51.75 48.2769 51.6117 47.9431 51.3656 47.6969 C 51.1194 47.4508 50.7856 47.3125 50.4375 47.3125 L 47.8125 47.3125 L 47.8125 46.4856 C 47.8158 46.3579 47.868 46.2363 47.9584 46.1459 C 48.0488 46.0556 48.1704 46.0033 48.2981 46 Z" stroke-linecap="round" />
</g>
		<g transform="matrix(1 0 0 1 -0.66 2.63)" id="b-n1goKBbYwvwLRj1EMPd"  >
<path style="stroke: none; stroke-width: 1; stroke-dasharray: none; stroke-linecap: butt; stroke-dashoffset: 0; stroke-linejoin: miter; stroke-miterlimit: 4; fill: rgb(149,222,29); fill-rule: nonzero; opacity: 1;" vector-effect="non-scaling-stroke"  transform=" translate(-56.34, -48.63)" d="M 56.1731 46 L 58.3125 46 C 58.6606 46 58.9944 45.8617 59.2406 45.6156 C 59.4867 45.3694 59.625 45.0356 59.625 44.6875 C 59.625 44.3394 59.4867 44.0056 59.2406 43.7594 C 58.9944 43.5133 58.6606 43.375 58.3125 43.375 L 56.1731 43.375 C 55.3481 43.375 54.5569 43.7027 53.9736 44.2861 C 53.3902 44.8694 53.0625 45.6606 53.0625 46.4856 L 53.0625 50.7644 C 53.0625 51.5894 53.3902 52.3806 53.9736 52.9639 C 54.5569 53.5473 55.3481 53.875 56.1731 53.875 L 58.3125 53.875 C 58.6606 53.875 58.9944 53.7367 59.2406 53.4906 C 59.4867 53.2444 59.625 52.9106 59.625 52.5625 C 59.625 52.2144 59.4867 51.8806 59.2406 51.6344 C 58.9944 51.3883 58.6606 51.25 58.3125 51.25 L 56.1731 51.25 C 56.0454 51.2467 55.9238 51.1944 55.8334 51.1041 C 55.743 51.0137 55.6908 50.8921 55.6875 50.7644 L 55.6875 46.4856 C 55.6908 46.3579 55.743 46.2363 55.8334 46.1459 C 55.9238 46.0556 56.0454 46.0033 56.1731 46 Z" stroke-linecap="round" />
</g>
		<g transform="matrix(1 0 0 1 7.88 2.63)" id="urWag-_83yDLkrA2zokKj"  >
<path style="stroke: none; stroke-width: 1; stroke-dasharray: none; stroke-linecap: butt; stroke-dashoffset: 0; stroke-linejoin: miter; stroke-miterlimit: 4; fill: rgb(149,222,29); fill-rule: nonzero; opacity: 1;" vector-effect="non-scaling-stroke"  transform=" translate(-64.88, -48.63)" d="M 60.9375 51.3681 C 60.9409 52.0319 61.2062 52.6676 61.6756 53.1369 C 62.1449 53.6063 62.7806 53.8716 63.4444 53.875 L 66.3056 53.875 C 66.9694 53.8716 67.6051 53.6063 68.0744 53.1369 C 68.5438 52.6676 68.8091 52.0319 68.8125 51.3681 L 68.8125 45.8819 C 68.8091 45.2181 68.5438 44.5824 68.0744 44.1131 C 67.6051 43.6437 66.9694 43.3784 66.3056 43.375 L 63.4444 43.375 C 62.7806 43.3784 62.1449 43.6437 61.6756 44.1131 C 61.2062 44.5824 60.9409 45.2181 60.9375 45.8819 L 60.9375 51.3681 Z M 63.5625 46 L 66.1875 46 L 66.1875 51.25 L 63.5625 51.25 L 63.5625 46 Z" stroke-linecap="round" />
</g>
</g>
</g>
</svg>