<?xml version="1.0" encoding="UTF-8" standalone="no" ?>
<!DOCTYPE svg PUBLIC "-//W3C//DTD SVG 1.1//EN" "http://www.w3.org/Graphics/SVG/1.1/DTD/svg11.dtd">
<svg xmlns="http://www.w3.org/2000/svg" xmlns:xlink="http://www.w3.org/1999/xlink" version="1.1" width="124" height="124" viewBox="0 0 124 124" xml:space="preserve">
<desc>Created with Fabric.js 4.6.0</desc>
<defs>
</defs>
<g transform="matrix(1.91 0 0 1.91 62 62)" id="ffsTO6-Z6c7_Hn6Tl235c"  >
<g style="" vector-effect="non-scaling-stroke"   >
		<g transform="matrix(1 0 0 1 0 0)" id="zeJBuQNvQV0vtLAVuxe78"  >
<path style="stroke: none; stroke-width: 1; stroke-dasharray: none; stroke-linecap: butt; stroke-dashoffset: 0; stroke-linejoin: miter; stroke-miterlimit: 4; fill: rgb(246,246,246); fill-rule: nonzero; opacity: 1;" vector-effect="non-scaling-stroke"  transform=" translate(-32, -32)" d="M 0 32 C 0 14.326889999999999 14.32689 0 32 0 C 49.67311 0 64 14.32689 64 32 C 64 49.67311 49.67311 64 32 64 C 14.326889999999999 64 0 49.67311 0 32 z" stroke-linecap="round" />
</g>
		<g transform="matrix(1 0 0 1 -1.84 0.7)" id="ouisjrmCww15DyEWCeHCa"  >
<path style="stroke: none; stroke-width: 1; stroke-dasharray: none; stroke-linecap: butt; stroke-dashoffset: 0; stroke-linejoin: miter; stroke-miterlimit: 4; fill: rgb(149,222,29); fill-rule: nonzero; opacity: 1;" vector-effect="non-scaling-stroke"  transform=" translate(-55.16, -46.7)" d="M 70.1255 46 C 69.7774 46 69.4435 46.1383 69.1974 46.3844 C 68.9512 46.6306 68.813 46.9644 68.813 47.3125 C 68.7975 47.699 68.7624 48.0845 68.708 48.4675 L 67.6317 47.9163 C 67.3365 47.7792 67.0994 47.542 66.9623 47.2469 C 66.5905 46.4803 66.0106 45.8338 65.2888 45.3813 C 64.567 44.9287 63.7324 44.6883 62.8805 44.6875 C 62.6616 44.7015 62.4427 44.6605 62.2438 44.5682 C 62.0449 44.4759 61.8723 44.3352 61.7418 44.1589 C 61.6112 43.9827 61.5269 43.7766 61.4966 43.5594 C 61.4662 43.3422 61.4907 43.1209 61.568 42.9156 C 61.7028 42.5368 61.8651 42.1683 62.0536 41.8131 C 62.1398 41.6632 62.1956 41.4977 62.2178 41.3262 C 62.24 41.1547 62.2283 40.9805 62.1832 40.8135 C 62.1381 40.6465 62.0605 40.4901 61.955 40.3531 C 61.8494 40.2161 61.7179 40.1012 61.568 40.015 C 61.418 39.9288 61.2525 39.873 61.081 39.8508 C 60.9095 39.8286 60.7353 39.8403 60.5683 39.8854 C 60.4013 39.9305 60.2449 40.0081 60.1079 40.1136 C 59.9709 40.2192 59.856 40.3507 59.7698 40.5006 C 59.4975 40.9971 59.2776 41.5205 59.1136 42.0625 C 58.8053 42.9689 58.8378 43.9565 59.2049 44.8407 C 59.5721 45.7249 60.2489 46.445 61.1086 46.8663 C 61.6583 47.1428 62.2651 47.2866 62.8805 47.2863 C 63.238 47.2841 63.5889 47.3826 63.893 47.5707 C 64.1971 47.7587 64.442 48.0286 64.5998 48.3494 C 64.9997 49.1429 65.6438 49.787 66.4373 50.1869 L 68.0911 51.0269 C 67.9301 51.5519 67.7328 52.065 67.5005 52.5625 L 63.7336 51.6175 C 63.3991 51.5366 63.0506 51.5324 62.7142 51.6051 C 62.3779 51.6779 62.0623 51.8257 61.7911 52.0375 C 61.5289 52.2446 61.3162 52.5076 61.1686 52.8073 C 61.0211 53.107 60.9422 53.4359 60.938 53.77 L 60.938 54.2425 L 59.6255 54.7019 C 59.4967 54.1742 59.1852 53.7091 58.7461 53.3894 C 58.4551 53.1815 58.119 53.0458 57.7653 52.9933 C 57.4116 52.9408 57.0505 52.9731 56.7117 53.0875 L 55.5961 53.455 C 54.2639 53.8925 53.1565 54.835 52.5117 56.08 C 51.9951 57.1209 51.9102 58.3237 52.2755 59.4269 L 52.5248 60.175 C 48.993 59.4985 45.8629 57.4745 43.7967 54.5313 L 46.9336 51.3944 C 47.5058 50.7934 47.8213 49.993 47.813 49.1631 C 47.8163 49.0215 47.8741 48.8865 47.9743 48.7863 C 48.0745 48.6861 48.2094 48.6283 48.3511 48.625 L 49.8998 48.625 C 50.7387 48.625 51.5433 48.2918 52.1365 47.6985 C 52.7297 47.1053 53.063 46.3008 53.063 45.4619 L 53.063 44.5169 C 53.0649 43.9304 52.9024 43.355 52.5938 42.8562 C 52.2852 42.3574 51.843 41.9551 51.3173 41.695 C 51.0518 41.566 50.8282 41.3644 50.6726 41.1135 C 50.5169 40.8626 50.4356 40.5727 50.438 40.2775 L 50.438 39.9494 C 50.4406 39.1706 50.2501 38.4034 49.8836 37.7163 C 49.5172 37.0291 48.9861 36.4436 48.338 36.0119 L 47.2486 35.2769 C 48.9804 34.0909 50.9606 33.317 53.0377 33.0144 C 55.1148 32.7118 57.2335 32.8886 59.2317 33.5313 C 59.5641 33.6357 59.9244 33.6038 60.2333 33.4426 C 60.5423 33.2813 60.7745 33.004 60.8789 32.6716 C 60.9833 32.3391 60.9514 31.9788 60.7902 31.6699 C 60.629 31.361 60.3516 31.1288 60.0192 31.0244 C 57.8133 30.3564 55.4913 30.1611 53.2048 30.4512 C 50.9184 30.7413 48.7187 31.5102 46.7495 32.7079 C 44.7803 33.9056 43.0858 35.5051 41.7766 37.4019 C 40.4674 39.2988 39.5728 41.4504 39.1514 43.7164 C 38.7299 45.9823 38.7911 48.3117 39.3307 50.5525 C 39.8704 52.7932 40.8765 54.895 42.2834 56.7206 C 43.6903 58.5462 45.4664 60.0546 47.4957 61.1474 C 49.525 62.2401 51.7619 62.8927 54.0605 63.0625 C 54.1651 63.0752 54.2708 63.0752 54.3755 63.0625 L 54.533 63.0625 L 55.0317 63.0625 C 59.2745 63.0757 63.3566 61.4408 66.4173 58.5026 C 69.478 55.5643 71.2781 51.5523 71.438 47.3125 C 71.438 46.9644 71.2997 46.6306 71.0535 46.3844 C 70.8074 46.1383 70.4735 46 70.1255 46 Z M 45.188 37.0619 L 46.9073 38.2038 C 47.1877 38.4003 47.4164 38.6617 47.5741 38.9656 C 47.7318 39.2695 47.8137 39.607 47.813 39.9494 L 47.813 40.2775 C 47.8106 41.0578 48.027 41.8231 48.4376 42.4867 C 48.8483 43.1502 49.4367 43.6853 50.1361 44.0313 C 50.226 44.0769 50.3017 44.1462 50.3549 44.2319 C 50.4081 44.3175 50.4369 44.4161 50.438 44.5169 L 50.438 45.4619 C 50.4346 45.6036 50.3769 45.7385 50.2766 45.8387 C 50.1764 45.9389 50.0415 45.9967 49.8998 46 L 48.3511 46 C 47.5122 46 46.7076 46.3333 46.1144 46.9265 C 45.5212 47.5197 45.188 48.3242 45.188 49.1631 C 45.189 49.2359 45.1756 49.3082 45.1486 49.3758 C 45.1215 49.4433 45.0814 49.5049 45.0305 49.5569 L 42.4055 52.1819 C 41.3076 49.6717 40.9859 46.8904 41.4818 44.1959 C 41.9776 41.5013 43.2684 39.0168 45.188 37.0619 Z M 55.3205 60.4375 L 54.7036 58.6131 C 54.5673 58.1785 54.605 57.708 54.8086 57.3006 C 55.1378 56.676 55.6984 56.2049 56.3705 55.9881 L 57.053 55.7519 C 57.1817 56.2796 57.4932 56.7446 57.9323 57.0644 C 58.2233 57.2722 58.5595 57.408 58.9131 57.4604 C 59.2668 57.5129 59.6279 57.4806 59.9667 57.3663 L 62.0142 56.6838 C 62.4719 56.5347 62.8695 56.2424 63.1483 55.8501 C 63.4272 55.4578 63.5725 54.9862 63.563 54.505 L 63.563 54.2425 L 66.0961 54.8725 C 64.8468 56.5641 63.2252 57.9458 61.3568 58.9107 C 59.4883 59.8757 57.423 60.3981 55.3205 60.4375 Z" stroke-linecap="round" />
</g>
		<g transform="matrix(1 0 0 1 11.82 -7.21)" id="llJwjgjHvdGovbadvNMC3"  >
<path style="stroke: none; stroke-width: 1; stroke-dasharray: none; stroke-linecap: butt; stroke-dashoffset: 0; stroke-linejoin: miter; stroke-miterlimit: 4; fill: rgb(149,222,29); fill-rule: nonzero; opacity: 1;" vector-effect="non-scaling-stroke"  transform=" translate(-68.82, -38.79)" d="M 74.9551 35.0801 C 74.6982 34.5235 74.3103 34.0375 73.8245 33.6636 C 73.3387 33.2897 72.7695 33.0392 72.1657 32.9334 C 71.5619 32.8276 70.9414 32.8697 70.3575 33.0561 C 69.7735 33.2426 69.2434 33.5678 68.8126 34.0039 C 68.3818 33.5678 67.8517 33.2426 67.2677 33.0561 C 66.6838 32.8697 66.0633 32.8276 65.4595 32.9334 C 64.8557 33.0392 64.2865 33.2897 63.8007 33.6636 C 63.3149 34.0375 62.927 34.5235 62.6701 35.0801 C 62.3292 35.7762 62.1915 36.5542 62.2727 37.325 C 62.354 38.0957 62.6509 38.828 63.1295 39.4376 L 66.1876 43.3751 C 66.4899 43.7874 66.8851 44.1227 67.3412 44.3539 C 67.7972 44.585 68.3013 44.7054 68.8126 44.7054 C 69.3239 44.7054 69.828 44.585 70.284 44.3539 C 70.7401 44.1227 71.1353 43.7874 71.4376 43.3751 L 74.522 39.4376 C 74.9963 38.8254 75.2886 38.0919 75.3652 37.3212 C 75.4418 36.5504 75.2997 35.7738 74.9551 35.0801 Z M 72.4351 37.8364 L 69.3507 41.7739 C 69.2885 41.858 69.2074 41.9264 69.1139 41.9735 C 69.0205 42.0206 68.9173 42.0451 68.8126 42.0451 C 68.7079 42.0451 68.6047 42.0206 68.5113 41.9735 C 68.4178 41.9264 68.3367 41.858 68.2745 41.7739 L 65.1901 37.8364 C 65.0185 37.6075 64.9131 37.3359 64.8854 37.0512 C 64.8576 36.7665 64.9085 36.4797 65.0326 36.222 C 65.133 36.0016 65.2961 35.8156 65.5015 35.6872 C 65.7068 35.5589 65.9455 35.4938 66.1876 35.5001 C 66.3483 35.5014 66.5071 35.5359 66.6539 35.6014 C 66.8007 35.6669 66.9324 35.762 67.0407 35.8807 L 67.9201 36.8126 C 68.0429 36.9438 68.1913 37.0483 68.3561 37.1198 C 68.5209 37.1912 68.6986 37.2281 68.8782 37.2281 C 69.0579 37.2281 69.2356 37.1912 69.4004 37.1198 C 69.5652 37.0483 69.7136 36.9438 69.8364 36.8126 L 70.7157 35.8807 C 70.919 35.6567 71.2013 35.5202 71.5032 35.5001 C 71.7342 35.5064 71.9587 35.5773 72.1513 35.705 C 72.3439 35.8326 72.4968 36.0117 72.5926 36.222 C 72.7167 36.4797 72.7676 36.7665 72.7399 37.0512 C 72.7121 37.3359 72.6067 37.6075 72.4351 37.8364 Z" stroke-linecap="round" />
</g>
</g>
</g>
</svg>