<?xml version="1.0" encoding="UTF-8" standalone="no" ?>
<!DOCTYPE svg PUBLIC "-//W3C//DTD SVG 1.1//EN" "http://www.w3.org/Graphics/SVG/1.1/DTD/svg11.dtd">
<svg xmlns="http://www.w3.org/2000/svg" xmlns:xlink="http://www.w3.org/1999/xlink" version="1.1" width="124" height="124" viewBox="0 0 124 124" xml:space="preserve">
<desc>Created with Fabric.js 4.6.0</desc>
<defs>
</defs>
<g transform="matrix(1.9 0 0 1.9 62.09 61.99)" id="S7GbhR6ZereSPboNX_lzk"  >
<g style="" vector-effect="non-scaling-stroke"   >
		<g transform="matrix(1 0 0 1 0 0)" id="4MnYAvu_I7ztpdgnUFNwI"  >
<path style="stroke: none; stroke-width: 1; stroke-dasharray: none; stroke-linecap: butt; stroke-dashoffset: 0; stroke-linejoin: miter; stroke-miterlimit: 4; fill: rgb(246,246,246); fill-rule: nonzero; opacity: 1;" vector-effect="non-scaling-stroke"  transform=" translate(-32, -32)" d="M 0 32 C 0 14.326889999999999 14.32689 0 32 0 C 49.67311 0 64 14.32689 64 32 C 64 49.67311 49.67311 64 32 64 C 14.326889999999999 64 0 49.67311 0 32 z" stroke-linecap="round" />
</g>
		<g transform="matrix(1 0 0 1 0 -0.03)" id="QTTGBWRv2mpx0OObCwWwS"  >
<path style="stroke: none; stroke-width: 1; stroke-dasharray: none; stroke-linecap: butt; stroke-dashoffset: 0; stroke-linejoin: miter; stroke-miterlimit: 4; fill: rgb(149,222,29); fill-rule: nonzero; opacity: 1;" vector-effect="non-scaling-stroke"  transform=" translate(-57, -45.97)" d="M 74.3511 54.553 C 73.8352 53.8193 73.0664 53.3021 72.1923 53.1009 C 71.5369 51.2119 68.954 45.0052 62.5417 42.8207 C 61.576 42.4927 60.5756 42.2771 59.5605 42.1782 L 59.5605 36.2542 C 59.7738 35.211 60.2104 34.2263 60.8404 33.3678 C 61.4704 32.5094 62.2787 31.7975 63.21 31.2811 C 64.8053 30.4813 66.6505 30.3383 68.3501 30.8828 C 67.7933 32.6412 66.5713 34.1123 64.9447 34.982 C 64.3981 35.259 63.8135 35.4539 63.21 35.5603 C 63.0377 35.5849 62.8722 35.6444 62.7235 35.7349 C 62.5749 35.8255 62.4462 35.9453 62.3453 36.0871 C 62.2443 36.2289 62.1732 36.3897 62.1363 36.5598 C 62.0994 36.7299 62.0974 36.9057 62.1305 37.0766 C 62.188 37.3736 62.3483 37.6408 62.5834 37.8312 C 62.8184 38.0216 63.1131 38.123 63.4156 38.1175 L 63.6597 38.1175 C 64.5044 37.9607 65.3223 37.6838 66.0884 37.2951 C 67.3913 36.5859 68.5196 35.595 69.391 34.3946 C 70.2625 33.1941 70.8551 31.8144 71.1257 30.3559 C 71.1722 30.0859 71.1312 29.8081 71.0087 29.5631 C 70.8862 29.318 70.6886 29.1186 70.4447 28.9938 C 69.1403 28.3403 67.7015 28 66.2426 28 C 64.7837 28 63.3449 28.3403 62.0406 28.9938 C 59.8439 30.1554 58.1817 32.1216 57.4016 34.4809 C 56.7222 33.7373 55.9065 33.131 54.9986 32.6947 C 53.8162 32.1407 52.5264 31.8535 51.2206 31.8535 C 49.9149 31.8535 48.6251 32.1407 47.4427 32.6947 C 47.1844 32.8126 46.9725 33.0127 46.84 33.2638 C 46.7075 33.5149 46.6618 33.8027 46.7102 34.0825 C 46.9678 35.3493 47.5116 36.5405 48.3 37.565 C 49.0884 38.5895 50.1006 39.4202 51.2592 39.9936 C 52.469 40.5481 53.7835 40.8372 55.1143 40.8417 C 55.7453 40.8416 56.3744 40.7727 56.9904 40.6361 L 56.9904 42.191 C 55.257 42.3192 53.5601 42.7543 51.9788 43.476 C 51.6619 43.6294 51.4188 43.9024 51.3031 44.235 C 51.1875 44.5675 51.2086 44.9324 51.362 45.2494 C 51.5154 45.5663 51.7884 45.8094 52.1209 45.9251 C 52.4535 46.0407 52.8184 46.0196 53.1353 45.8662 C 55.8324 44.5554 58.9332 44.3435 61.7836 45.2751 C 66.5382 46.8814 68.787 51.2633 69.5965 53.3065 L 62.3618 55.0413 C 61.8753 55.1503 61.3706 55.1503 60.8841 55.0413 L 56.9519 54.296 C 56.7516 54.2664 56.5678 54.1683 56.4319 54.0183 C 56.2959 53.8683 56.2163 53.6758 56.2066 53.4736 C 56.2231 53.2405 56.3308 53.0235 56.5065 52.8695 C 56.6821 52.7155 56.9115 52.637 57.1446 52.6511 L 58.2755 52.6511 C 59.1275 52.6511 59.9446 52.3127 60.5471 51.7102 C 61.1496 51.1077 61.488 50.2906 61.488 49.4386 C 61.488 48.5865 61.1496 47.7694 60.5471 47.1669 C 59.9446 46.5645 59.1275 46.226 58.2755 46.226 L 54.5489 46.226 C 53.7248 46.222 52.9052 46.3477 52.1202 46.5987 L 45.1168 48.8603 L 40.7091 49.9526 C 40.2211 50.0778 39.7885 50.3616 39.4791 50.7593 C 39.1698 51.157 39.0013 51.6461 39 52.15 L 39 60.6826 C 38.9983 60.9807 39.0556 61.2761 39.1685 61.552 C 39.2814 61.8279 39.4477 62.0787 39.6579 62.2901 C 39.8681 62.5015 40.118 62.6692 40.3932 62.7837 C 40.6684 62.8981 40.9636 62.9571 41.2617 62.9571 L 45.4252 62.9571 C 45.766 62.9571 46.0928 62.8217 46.3338 62.5807 C 46.5748 62.3397 46.7102 62.0128 46.7102 61.672 C 46.7102 61.3312 46.5748 61.0044 46.3338 60.7634 C 46.0928 60.5224 45.766 60.387 45.4252 60.387 L 41.5701 60.387 L 41.5701 52.407 L 45.8107 51.3404 L 52.904 49.0788 C 53.4369 48.9153 53.9914 48.833 54.5489 48.8346 L 58.2755 48.8346 C 58.4575 48.824 58.6363 48.8855 58.7734 49.0057 C 58.9105 49.1259 58.9947 49.2953 59.0079 49.4771 C 58.9916 49.6577 58.9064 49.8252 58.7701 49.9448 C 58.6338 50.0644 58.4567 50.127 58.2755 50.1196 L 57.1318 50.1196 C 56.274 50.094 55.4384 50.3943 54.7933 50.9602 C 54.1482 51.5261 53.7414 52.3154 53.6551 53.1692 C 53.5687 54.023 53.8091 54.8778 54.3279 55.5614 C 54.8467 56.245 55.6052 56.7066 56.4507 56.8532 L 60.3315 57.5471 C 61.1832 57.7057 62.0588 57.6838 62.9016 57.4828 L 71.0358 55.5425 C 71.2565 55.4846 71.4894 55.4941 71.7046 55.5696 C 71.9199 55.6452 72.1076 55.7834 72.2437 55.9665 C 72.3265 56.0823 72.3803 56.2163 72.4004 56.3572 C 72.4206 56.4981 72.4065 56.6418 72.3594 56.7761 C 72.3033 56.9329 72.2095 57.0736 72.0863 57.1857 C 71.963 57.2977 71.8141 57.3777 71.6526 57.4186 L 60.4728 60.7083 C 58.4642 61.2958 56.3599 61.4835 54.279 61.2608 L 50.7066 60.8882 C 50.3658 60.8507 50.0241 60.9501 49.7566 61.1646 C 49.4891 61.3791 49.3177 61.691 49.2803 62.0318 C 49.2428 62.3727 49.3422 62.7144 49.5567 62.9819 C 49.7712 63.2494 50.0831 63.4207 50.4239 63.4582 L 54.0092 63.8437 C 54.6645 63.8437 55.2942 63.9465 55.9753 63.9465 C 57.741 63.9485 59.4979 63.6975 61.1925 63.2012 L 72.4108 59.9373 C 72.9594 59.7768 73.4628 59.4897 73.8801 59.0991 C 74.2975 58.7085 74.6173 58.2253 74.8138 57.6885 C 74.9923 57.1668 75.0435 56.61 74.963 56.0646 C 74.8825 55.5191 74.6727 55.0008 74.3511 54.553 Z M 52.4157 37.6806 C 51.1243 37.0462 50.1129 35.957 49.5758 34.6222 C 51.0042 34.2559 52.5151 34.392 53.855 35.0077 C 55.1463 35.6421 56.1577 36.7313 56.6949 38.0661 C 55.2665 38.4324 53.7556 38.2963 52.4157 37.6806 Z" stroke-linecap="round" />
</g>
</g>
</g>
</svg>