<svg width="783" height="60" viewBox="0 0 783 60" fill="none" xmlns="http://www.w3.org/2000/svg">
<path d="M10.96 57.44L10.57 58.8884L10.96 57.44ZM0.8 53.12L-0.526988 52.4206L-1.15483 53.6119L-0.0379007 54.3642L0.8 53.12ZM7.04 41.28L7.84993 40.0175L6.47476 39.1353L5.71301 40.5806L7.04 41.28ZM16.08 45.44L15.649 46.8767L15.66 46.8801L15.6711 46.8832L16.08 45.44ZM32.72 45.52L33.408 46.8529L33.4159 46.8488L33.4237 46.8447L32.72 45.52ZM32.96 38.72L32.2892 40.0616L32.2985 40.0663L32.3079 40.0708L32.96 38.72ZM25.92 36.32L26.3065 34.8706L26.3038 34.8699L25.92 36.32ZM16.88 33.44L16.2965 34.8219L16.3097 34.8274L16.3229 34.8327L16.88 33.44ZM10.64 28.88L9.49263 29.8462L9.49998 29.8549L9.50745 29.8635L10.64 28.88ZM11.36 10.4L12.5703 11.2861L12.5777 11.2759L11.36 10.4ZM20.72 3.36L21.2865 4.7489L20.72 3.36ZM46.16 2.16L45.8015 3.61652L45.8121 3.61913L45.8227 3.62159L46.16 2.16ZM55.12 5.68L56.4671 6.3398L57.0656 5.1179L55.9077 4.40344L55.12 5.68ZM49.36 17.44L48.5567 18.7068L49.9706 19.6034L50.7071 18.0998L49.36 17.44ZM42.08 14.32L41.6679 15.7623L41.6852 15.7672L41.7026 15.7717L42.08 14.32ZM26.56 14.72L25.8283 13.4106L25.8199 13.4153L25.8116 13.4201L26.56 14.72ZM26.24 21.84L25.5879 23.1908L26.24 21.84ZM33.44 24.24L33.0594 25.6909L33.0678 25.6931L33.0762 25.6952L33.44 24.24ZM42.4 27.04L41.832 28.4284L41.8429 28.4327L42.4 27.04ZM47.76 49.68L46.5524 48.7902L46.5497 48.7939L47.76 49.68ZM38.32 56.64L37.7598 55.2485L37.7535 55.2511L38.32 56.64ZM24.16 57.62C19.6416 57.62 15.3734 57.0748 11.35 55.9916L10.57 58.8884C14.8666 60.0452 19.3984 60.62 24.16 60.62V57.62ZM11.35 55.9916C7.29506 54.8999 4.07416 53.5166 1.6379 51.8758L-0.0379007 54.3642C2.75251 56.2434 6.30494 57.7401 10.57 58.8884L11.35 55.9916ZM2.12699 53.8194L8.36699 41.9794L5.71301 40.5806L-0.526988 52.4206L2.12699 53.8194ZM6.23007 42.5425C9.17369 44.4309 12.3145 45.8764 15.649 46.8767L16.511 44.0033C13.4455 43.0836 10.5596 41.7558 7.84993 40.0175L6.23007 42.5425ZM15.6711 46.8832C18.9989 47.8261 22.3364 48.3 25.68 48.3V45.3C22.6236 45.3 19.5611 44.8673 16.4889 43.9968L15.6711 46.8832ZM25.68 48.3C28.8248 48.3 31.448 47.8645 33.408 46.8529L32.032 44.1871C30.6853 44.8822 28.6152 45.3 25.68 45.3V48.3ZM33.4237 46.8447C35.4757 45.7546 36.78 44.0881 36.78 41.84H33.78C33.78 42.6852 33.3776 43.4721 32.0163 44.1953L33.4237 46.8447ZM36.78 41.84C36.78 39.7567 35.4991 38.2801 33.6121 37.3692L32.3079 40.0708C33.5142 40.6532 33.78 41.2567 33.78 41.84H36.78ZM33.6308 37.3784C31.9962 36.561 29.5287 35.7299 26.3065 34.8706L25.5335 37.7694C28.7113 38.6168 30.9371 39.3856 32.2892 40.0616L33.6308 37.3784ZM26.3038 34.8699C22.7123 33.9192 19.7616 32.9771 17.4371 32.0473L16.3229 34.8327C18.7984 35.8229 21.8744 36.8008 25.5362 37.7701L26.3038 34.8699ZM17.4635 32.0581C15.281 31.1367 13.387 29.7556 11.7726 27.8965L9.50745 29.8635C11.413 32.0577 13.679 33.7167 16.2965 34.8219L17.4635 32.0581ZM11.7874 27.9138C10.3606 26.2195 9.58 23.9235 9.58 20.88H6.58C6.58 24.4498 7.50609 27.4872 9.49263 29.8462L11.7874 27.9138ZM9.58 20.88C9.58 17.1715 10.5873 13.9946 12.5703 11.2861L10.1497 9.51389C7.75936 12.7787 6.58 16.5885 6.58 20.88H9.58ZM12.5777 11.2759C14.5737 8.50103 17.4493 6.31409 21.2865 4.7489L20.1535 1.9711C15.884 3.71258 12.5197 6.21897 10.1423 9.5241L12.5777 11.2759ZM21.2865 4.7489C25.1221 3.18438 29.6687 2.38 34.96 2.38V-0.620003C29.3713 -0.620003 24.4245 0.228947 20.1535 1.9711L21.2865 4.7489ZM34.96 2.38C38.8534 2.38 42.4652 2.79529 45.8015 3.61652L46.5185 0.703476C42.9215 -0.181959 39.0666 -0.620003 34.96 -0.620003V2.38ZM45.8227 3.62159C49.1622 4.39224 51.9902 5.51138 54.3323 6.95655L55.9077 4.40344C53.2365 2.75528 50.0911 1.52776 46.4973 0.698412L45.8227 3.62159ZM53.7729 5.0202L48.0129 16.7802L50.7071 18.0998L56.4671 6.3398L53.7729 5.0202ZM50.1633 16.1732C47.837 14.698 45.2651 13.5983 42.4575 12.8683L41.7026 15.7717C44.2282 16.4284 46.5097 17.4087 48.5567 18.7068L50.1633 16.1732ZM42.4921 12.8777C39.742 12.092 36.9098 11.7 34 11.7V14.7C36.6368 14.7 39.1913 15.0547 41.6679 15.7623L42.4921 12.8777ZM34 11.7C30.7184 11.7 27.9515 12.2241 25.8283 13.4106L27.2917 16.0294C28.7952 15.1892 30.9882 14.7 34 14.7V11.7ZM25.8116 13.4201C23.7317 14.6175 22.42 16.3547 22.42 18.64H25.42C25.42 17.7253 25.8683 16.8491 27.3084 16.0199L25.8116 13.4201ZM22.42 18.64C22.42 19.6319 22.7032 20.5571 23.2856 21.3605C23.8554 22.1464 24.6568 22.7413 25.5879 23.1908L26.8921 20.4892C26.2765 20.192 25.9179 19.8802 25.7144 19.5995C25.5235 19.3362 25.42 19.0347 25.42 18.64H22.42ZM25.5879 23.1908C27.2692 24.0025 29.7834 24.8316 33.0594 25.6909L33.8206 22.7891C30.5899 21.9417 28.3041 21.1708 26.8921 20.4892L25.5879 23.1908ZM33.0762 25.6952C36.6626 26.5918 39.5748 27.5049 41.8321 28.4283L42.9679 25.6517C40.5318 24.6551 37.4707 23.7015 33.8038 22.7848L33.0762 25.6952ZM41.8429 28.4327C44.0182 29.3028 45.8741 30.6275 47.4255 32.4212L49.6945 30.4588C47.8326 28.3059 45.5818 26.6972 42.9571 25.6473L41.8429 28.4327ZM47.4255 32.4212C48.8462 34.064 49.62 36.2754 49.62 39.2H52.62C52.62 35.7246 51.6871 32.7627 49.6945 30.4588L47.4255 32.4212ZM49.62 39.2C49.62 42.8419 48.5935 46.0201 46.5524 48.7902L48.9676 50.5698C51.4065 47.2598 52.62 43.4514 52.62 39.2H49.62ZM46.5497 48.7939C44.5582 51.5139 41.6582 53.6791 37.7598 55.2485L38.8802 58.0315C43.1951 56.2943 46.5884 53.8194 48.9703 50.5661L46.5497 48.7939ZM37.7535 55.2511C33.9163 56.8163 29.3958 57.62 24.16 57.62V60.62C29.6975 60.62 34.6171 59.7704 38.8865 58.0289L37.7535 55.2511ZM95.3969 47.12L96.8661 46.8175L96.6195 45.62H95.3969V47.12ZM71.5569 47.12V45.62H70.7044L70.2681 46.3524L71.5569 47.12ZM65.0769 58V59.5H65.9294L66.3656 58.7676L65.0769 58ZM48.3569 58L47.0943 57.1901L45.6127 59.5H48.3569V58ZM84.2769 2V0.499996H83.457L83.0143 1.19014L84.2769 2ZM99.8769 2L101.335 1.64797L101.058 0.499996H99.8769V2ZM113.397 58V59.5H115.302L114.855 57.648L113.397 58ZM97.6369 58L96.1677 58.3025L96.4142 59.5H97.6369V58ZM92.9969 35.44V36.94H94.8393L94.4657 35.1359L92.9969 35.44ZM89.2369 17.28L90.7057 16.9759L89.9186 13.1744L87.9451 16.5175L89.2369 17.28ZM78.5169 35.44L77.2251 34.6775L75.8896 36.94H78.5169V35.44ZM95.3969 45.62H71.5569V48.62H95.3969V45.62ZM70.2681 46.3524L63.7881 57.2324L66.3656 58.7676L72.8456 47.8876L70.2681 46.3524ZM65.0769 56.5H48.3569V59.5H65.0769V56.5ZM49.6195 58.8099L85.5395 2.80986L83.0143 1.19014L47.0943 57.1901L49.6195 58.8099ZM84.2769 3.5H99.8769V0.499996H84.2769V3.5ZM98.4188 2.35202L111.939 58.352L114.855 57.648L101.335 1.64797L98.4188 2.35202ZM113.397 56.5H97.6369V59.5H113.397V56.5ZM99.1061 57.6975L96.8661 46.8175L93.9277 47.4225L96.1677 58.3025L99.1061 57.6975ZM94.4657 35.1359L90.7057 16.9759L87.768 17.5841L91.528 35.7441L94.4657 35.1359ZM87.9451 16.5175L77.2251 34.6775L79.8086 36.2025L90.5286 18.0425L87.9451 16.5175ZM78.5169 36.94H92.9969V33.94H78.5169V36.94ZM182.763 2L184.033 2.79695L185.474 0.499996H182.763V2ZM147.643 58V59.5H148.472L148.913 58.797L147.643 58ZM132.042 58L130.58 58.3323L130.845 59.5H132.042V58ZM119.323 2V0.499996H117.444L117.86 2.33225L119.323 2ZM135.562 2L137.028 1.67801L136.769 0.499996H135.562V2ZM143.562 38.4L142.097 38.722L142.884 42.2988L144.832 39.1983L143.562 38.4ZM166.443 2V0.499996H165.614L165.173 1.20174L166.443 2ZM181.492 1.20304L146.372 57.203L148.913 58.797L184.033 2.79695L181.492 1.20304ZM147.643 56.5H132.042V59.5H147.643V56.5ZM133.505 57.6677L120.785 1.66775L117.86 2.33225L130.58 58.3323L133.505 57.6677ZM119.323 3.5H135.562V0.499996H119.323V3.5ZM134.097 2.32198L142.097 38.722L145.028 38.078L137.028 1.67801L134.097 2.32198ZM144.832 39.1983L167.712 2.79825L165.173 1.20174L142.293 37.6017L144.832 39.1983ZM166.443 3.5H182.763V0.499996H166.443V3.5ZM199.241 14.24V12.74H198.005L197.768 13.953L199.241 14.24ZM197.401 23.68L195.928 23.393L195.58 25.18H197.401V23.68ZM222.281 23.68L223.753 23.9684L224.103 22.18H222.281V23.68ZM219.961 35.52V37.02H221.195L221.433 35.8084L219.961 35.52ZM195.001 35.52V34.02H193.765L193.528 35.2325L195.001 35.52ZM193.001 45.76L191.528 45.4725L191.179 47.26H193.001V45.76ZM222.361 45.76L223.829 46.0671L224.207 44.26H222.361V45.76ZM219.801 58V59.5H221.019L221.269 58.3071L219.801 58ZM174.921 58L173.45 57.7058L173.091 59.5H174.921V58ZM186.121 2V0.499996H184.891L184.65 1.70582L186.121 2ZM229.961 2L231.431 2.29786L231.795 0.499996H229.961V2ZM227.481 14.24V15.74H228.707L228.951 14.5379L227.481 14.24ZM197.768 13.953L195.928 23.393L198.873 23.967L200.713 14.527L197.768 13.953ZM197.401 25.18H222.281V22.18H197.401V25.18ZM220.809 23.3916L218.489 35.2316L221.433 35.8084L223.753 23.9684L220.809 23.3916ZM219.961 34.02H195.001V37.02H219.961V34.02ZM193.528 35.2325L191.528 45.4725L194.473 46.0475L196.473 35.8075L193.528 35.2325ZM193.001 47.26H222.361V44.26H193.001V47.26ZM220.892 45.4529L218.332 57.6929L221.269 58.3071L223.829 46.0671L220.892 45.4529ZM219.801 56.5H174.921V59.5H219.801V56.5ZM176.391 58.2942L187.591 2.29417L184.65 1.70582L173.45 57.7058L176.391 58.2942ZM186.121 3.5H229.961V0.499996H186.121V3.5ZM228.491 1.70213L226.01 13.9421L228.951 14.5379L231.431 2.29786L228.491 1.70213ZM227.481 12.74H199.241V15.74H227.481V12.74ZM272.512 14.56L273.983 14.8552L274.343 13.06H272.512V14.56ZM255.312 14.56L253.842 14.2604L253.475 16.06H255.312V14.56ZM257.872 2V0.499996H256.647L256.402 1.70042L257.872 2ZM308.032 2L309.502 2.29957L309.868 0.499996H308.032V2ZM305.472 14.56V16.06H306.697L306.942 14.8596L305.472 14.56ZM288.352 14.56V13.06H287.123L286.881 14.2648L288.352 14.56ZM279.632 58V59.5H280.861L281.103 58.2952L279.632 58ZM263.792 58L262.321 57.7048L261.961 59.5H263.792V58ZM272.512 13.06H255.312V16.06H272.512V13.06ZM256.782 14.8596L259.342 2.29957L256.402 1.70042L253.842 14.2604L256.782 14.8596ZM257.872 3.5H308.032V0.499996H257.872V3.5ZM306.562 1.70042L304.002 14.2604L306.942 14.8596L309.502 2.29957L306.562 1.70042ZM305.472 13.06H288.352V16.06H305.472V13.06ZM286.881 14.2648L278.161 57.7048L281.103 58.2952L289.823 14.8552L286.881 14.2648ZM279.632 56.5H263.792V59.5H279.632V56.5ZM265.263 58.2952L273.983 14.8552L271.041 14.2648L262.321 57.7048L265.263 58.2952ZM367.133 2L368.604 2.29417L368.963 0.499996H367.133V2ZM355.933 58V59.5H357.163L357.404 58.2942L355.933 58ZM340.093 58L338.622 57.7079L338.266 59.5H340.093V58ZM344.413 36.24L345.884 36.5321L346.24 34.74H344.413V36.24ZM322.893 36.24V34.74H321.662L321.422 35.9479L322.893 36.24ZM318.573 58V59.5H319.805L320.044 58.2921L318.573 58ZM302.733 58L301.262 57.7058L300.903 59.5H302.733V58ZM313.933 2V0.499996H312.703L312.462 1.70582L313.933 2ZM329.773 2L331.244 2.29201L331.6 0.499996H329.773V2ZM325.613 22.96L324.142 22.668L323.786 24.46H325.613V22.96ZM347.133 22.96V24.46H348.365L348.604 23.252L347.133 22.96ZM351.293 2V0.499996H350.062L349.822 1.70798L351.293 2ZM365.662 1.70582L354.462 57.7058L357.404 58.2942L368.604 2.29417L365.662 1.70582ZM355.933 56.5H340.093V59.5H355.933V56.5ZM341.564 58.2921L345.884 36.5321L342.942 35.9479L338.622 57.7079L341.564 58.2921ZM344.413 34.74H322.893V37.74H344.413V34.74ZM321.422 35.9479L317.102 57.7079L320.044 58.2921L324.364 36.5321L321.422 35.9479ZM318.573 56.5H302.733V59.5H318.573V56.5ZM304.204 58.2942L315.404 2.29417L312.462 1.70582L301.262 57.7058L304.204 58.2942ZM313.933 3.5H329.773V0.499996H313.933V3.5ZM328.302 1.70798L324.142 22.668L327.084 23.252L331.244 2.29201L328.302 1.70798ZM325.613 24.46H347.133V21.46H325.613V24.46ZM348.604 23.252L352.764 2.29201L349.822 1.70798L345.662 22.668L348.604 23.252ZM351.293 3.5H367.133V0.499996H351.293V3.5ZM391.506 14.24V12.74H390.27L390.034 13.953L391.506 14.24ZM389.666 23.68L388.194 23.393L387.846 25.18H389.666V23.68ZM414.546 23.68L416.018 23.9684L416.369 22.18H414.546V23.68ZM412.226 35.52V37.02H413.461L413.698 35.8084L412.226 35.52ZM387.266 35.52V34.02H386.031L385.794 35.2325L387.266 35.52ZM385.266 45.76L383.794 45.4725L383.445 47.26H385.266V45.76ZM414.626 45.76L416.094 46.0671L416.472 44.26H414.626V45.76ZM412.066 58V59.5H413.285L413.534 58.3071L412.066 58ZM367.186 58L365.715 57.7058L365.357 59.5H367.186V58ZM378.386 2V0.499996H377.157L376.915 1.70582L378.386 2ZM422.226 2L423.696 2.29786L424.061 0.499996H422.226V2ZM419.746 14.24V15.74H420.973L421.216 14.5379L419.746 14.24ZM390.034 13.953L388.194 23.393L391.139 23.967L392.979 14.527L390.034 13.953ZM389.666 25.18H414.546V22.18H389.666V25.18ZM413.074 23.3916L410.754 35.2316L413.698 35.8084L416.018 23.9684L413.074 23.3916ZM412.226 34.02H387.266V37.02H412.226V34.02ZM385.794 35.2325L383.794 45.4725L386.738 46.0475L388.738 35.8075L385.794 35.2325ZM385.266 47.26H414.626V44.26H385.266V47.26ZM413.158 45.4529L410.598 57.6929L413.534 58.3071L416.094 46.0671L413.158 45.4529ZM412.066 56.5H367.186V59.5H412.066V56.5ZM368.657 58.2942L379.857 2.29417L376.915 1.70582L365.715 57.7058L368.657 58.2942ZM378.386 3.5H422.226V0.499996H378.386V3.5ZM420.756 1.70213L418.276 13.9421L421.216 14.5379L423.696 2.29786L420.756 1.70213ZM419.746 12.74H391.506V15.74H419.746V12.74ZM468.777 14.24V12.74H467.549L467.307 13.944L468.777 14.24ZM466.298 26.56L464.827 26.264L464.465 28.06H466.298V26.56ZM491.017 26.56L492.488 26.8579L492.852 25.06H491.017V26.56ZM488.538 38.8V40.3H489.764L490.008 39.0979L488.538 38.8ZM463.897 38.8V37.3H462.668L462.427 38.5058L463.897 38.8ZM460.057 58V59.5H461.287L461.528 58.2942L460.057 58ZM444.217 58L442.747 57.7058L442.388 59.5H444.217V58ZM455.418 2V0.499996H454.188L453.947 1.70582L455.418 2ZM499.258 2L500.728 2.29786L501.092 0.499996H499.258V2ZM496.777 14.24V15.74H498.004L498.248 14.5379L496.777 14.24ZM467.307 13.944L464.827 26.264L467.768 26.856L470.248 14.536L467.307 13.944ZM466.298 28.06H491.017V25.06H466.298V28.06ZM489.547 26.2621L487.067 38.5021L490.008 39.0979L492.488 26.8579L489.547 26.2621ZM488.538 37.3H463.897V40.3H488.538V37.3ZM462.427 38.5058L458.587 57.7058L461.528 58.2942L465.368 39.0942L462.427 38.5058ZM460.057 56.5H444.217V59.5H460.057V56.5ZM445.688 58.2942L456.888 2.29417L453.947 1.70582L442.747 57.7058L445.688 58.2942ZM455.418 3.5H499.258V0.499996H455.418V3.5ZM497.787 1.70213L495.307 13.9421L498.248 14.5379L500.728 2.29786L497.787 1.70213ZM496.777 12.74H468.777V15.74H496.777V12.74ZM510.517 56L509.846 57.3417L509.853 57.345L510.517 56ZM500.837 47.28L499.551 48.0517L499.555 48.0585L499.559 48.0651L500.837 47.28ZM501.877 17.2L500.581 16.4442L500.575 16.4543L501.877 17.2ZM514.277 5.2L513.564 3.88013L513.559 3.88315L514.277 5.2ZM547.157 4L546.486 5.34166L546.493 5.34503L547.157 4ZM556.837 12.72L555.551 13.4917L555.555 13.4985L555.559 13.5051L556.837 12.72ZM555.797 42.8L554.501 42.0442L554.495 42.0543L555.797 42.8ZM543.397 54.8L542.684 53.4801L542.679 53.4832L543.397 54.8ZM535.957 43.36L535.131 42.1081L535.957 43.36ZM542.117 36.32L543.463 36.981L543.468 36.9714L542.117 36.32ZM540.757 17.44L539.696 18.5007L539.709 18.513L539.721 18.525L540.757 17.44ZM521.797 16.64L522.623 17.8919L521.797 16.64ZM515.637 23.76L516.983 24.421L516.988 24.4114L515.637 23.76ZM516.917 42.64L515.856 43.7007L515.869 43.713L515.881 43.725L516.917 42.64ZM525.317 57.62C519.848 57.62 515.15 56.6144 511.181 54.655L509.853 57.345C514.31 59.5456 519.479 60.62 525.317 60.62V57.62ZM511.188 54.6584C507.262 52.6955 504.253 49.9748 502.115 46.4949L499.559 48.0651C502.008 52.0519 505.452 55.1445 509.846 57.3416L511.188 54.6584ZM502.123 46.5083C500.037 43.0315 498.977 39.0368 498.977 34.48H495.977C495.977 39.5232 497.157 44.0618 499.551 48.0517L502.123 46.5083ZM498.977 34.48C498.977 28.3188 500.386 22.8197 503.178 17.9457L500.575 16.4543C497.501 21.8203 495.977 27.8412 495.977 34.48H498.977ZM503.173 17.9558C506.019 13.0756 509.951 9.26796 514.995 6.51684L513.559 3.88315C508.042 6.89204 503.708 11.0844 500.581 16.4442L503.173 17.9558ZM514.99 6.51986C520.079 3.77145 525.883 2.38 532.437 2.38V-0.620003C525.444 -0.620003 519.141 0.868542 513.564 3.88014L514.99 6.51986ZM532.437 2.38C537.907 2.38 542.574 3.38585 546.486 5.34164L547.828 2.65836C543.419 0.454144 538.274 -0.620003 532.437 -0.620003V2.38ZM546.493 5.34503C550.469 7.30813 553.471 10.0249 555.551 13.4917L558.123 11.9483C555.723 7.94843 552.271 4.85186 547.821 2.65497L546.493 5.34503ZM555.559 13.5051C557.693 16.98 558.777 20.9698 558.777 25.52H561.777C561.777 20.4702 560.567 15.9267 558.115 11.9349L555.559 13.5051ZM558.777 25.52C558.777 31.6763 557.343 37.1718 554.501 42.0442L557.093 43.5558C560.224 38.1882 561.777 32.1637 561.777 25.52H558.777ZM554.495 42.0543C551.705 46.925 547.779 50.7291 542.684 53.4801L544.11 56.1199C549.682 53.1109 554.022 48.915 557.098 43.5457L554.495 42.0543ZM542.679 53.4832C537.646 56.2285 531.871 57.62 525.317 57.62V60.62C532.309 60.62 538.588 59.1315 544.115 56.1168L542.679 53.4832ZM526.677 47.5C530.46 47.5 533.847 46.55 536.783 44.6119L535.131 42.1081C532.734 43.69 529.934 44.5 526.677 44.5V47.5ZM536.783 44.6119C539.678 42.7013 541.908 40.1484 543.463 36.981L540.77 35.659C539.445 38.3583 537.569 40.4987 535.131 42.1081L536.783 44.6119ZM543.468 36.9714C545.013 33.7661 545.777 30.2611 545.777 26.48H542.777C542.777 29.8456 542.1 32.9006 540.766 35.6685L543.468 36.9714ZM545.777 26.48C545.777 22.358 544.486 18.9257 541.793 16.355L539.721 18.525C541.721 20.4343 542.777 23.0287 542.777 26.48H545.777ZM541.818 16.3793C539.169 13.7311 535.517 12.5 531.077 12.5V15.5C534.957 15.5 537.758 16.5622 539.696 18.5007L541.818 16.3793ZM531.077 12.5C527.294 12.5 523.907 13.45 520.971 15.3881L522.623 17.8919C525.02 16.31 527.82 15.5 531.077 15.5V12.5ZM520.971 15.3881C518.069 17.303 515.839 19.8877 514.286 23.1085L516.988 24.4114C518.315 21.659 520.191 19.497 522.623 17.8919L520.971 15.3881ZM514.29 23.099C512.74 26.2567 511.977 29.7393 511.977 33.52H514.977C514.977 30.1541 515.654 27.1299 516.983 24.421L514.29 23.099ZM511.977 33.52C511.977 37.6325 513.234 41.0789 515.856 43.7007L517.978 41.5793C516.013 39.6144 514.977 36.9808 514.977 33.52H511.977ZM515.881 43.725C518.579 46.3005 522.244 47.5 526.677 47.5V44.5C522.789 44.5 519.948 43.4595 517.953 41.555L515.881 43.725ZM616.333 33.12L617.539 34.0116L617.545 34.0033L616.333 33.12ZM604.893 41.2L604.4 39.7833L602.701 40.3743L603.588 41.9395L604.893 41.2ZM614.413 58V59.5H616.987L615.718 57.2605L614.413 58ZM597.853 58L596.544 58.732L596.973 59.5H597.853V58ZM589.533 43.12L590.842 42.388L590.413 41.62H589.533V43.12ZM581.533 43.12V41.62H580.302L580.062 42.8273L581.533 43.12ZM578.573 58V59.5H579.804L580.044 58.2927L578.573 58ZM562.733 58L561.262 57.7058L560.903 59.5H562.733V58ZM573.933 2V0.499996H572.703L572.462 1.70582L573.933 2ZM602.093 16.24L601.187 17.435L601.2 17.4451L601.213 17.4549L602.093 16.24ZM587.293 14.48V12.98H586.069L585.824 14.1789L587.293 14.48ZM583.933 30.88L582.464 30.5789L582.095 32.38H583.933V30.88ZM601.533 28.4L602.512 29.5367L601.533 28.4ZM618.913 19.84C618.913 24.6787 617.634 28.7877 615.121 32.2367L617.545 34.0033C620.473 29.9856 621.913 25.2413 621.913 19.84H618.913ZM615.127 32.2284C612.61 35.6336 609.062 38.1619 604.4 39.7833L605.386 42.6167C610.538 40.8247 614.616 37.9664 617.539 34.0116L615.127 32.2284ZM603.588 41.9395L613.108 58.7395L615.718 57.2605L606.198 40.4605L603.588 41.9395ZM614.413 56.5H597.853V59.5H614.413V56.5ZM599.162 57.268L590.842 42.388L588.224 43.852L596.544 58.732L599.162 57.268ZM589.533 41.62H581.533V44.62H589.533V41.62ZM580.062 42.8273L577.102 57.7073L580.044 58.2927L583.004 43.4127L580.062 42.8273ZM578.573 56.5H562.733V59.5H578.573V56.5ZM564.204 58.2942L575.404 2.29417L572.462 1.70582L561.262 57.7058L564.204 58.2942ZM573.933 3.5H597.853V0.499996H573.933V3.5ZM597.853 3.5C604.798 3.5 609.968 5.03056 613.558 7.89285L615.428 5.54715C611.125 2.1161 605.201 0.499996 597.853 0.499996V3.5ZM613.558 7.89285C617.105 10.7212 618.913 14.6396 618.913 19.84H621.913C621.913 13.8404 619.774 9.01211 615.428 5.54715L613.558 7.89285ZM605.913 21.36C605.913 18.695 604.99 16.4857 602.973 15.0251L601.213 17.4549C602.29 18.2343 602.913 19.4383 602.913 21.36H605.913ZM603 15.045C601.101 13.6049 598.578 12.98 595.613 12.98V15.98C598.195 15.98 599.992 16.5285 601.187 17.435L603 15.045ZM595.613 12.98H587.293V15.98H595.613V12.98ZM585.824 14.1789L582.464 30.5789L585.403 31.1811L588.763 14.7811L585.824 14.1789ZM583.933 32.38H593.373V29.38H583.933V32.38ZM593.373 32.38C597.113 32.38 600.23 31.5016 602.512 29.5367L600.554 27.2633C598.996 28.6051 596.673 29.38 593.373 29.38V32.38ZM602.512 29.5367C604.829 27.5413 605.913 24.741 605.913 21.36H602.913C602.913 24.059 602.077 25.952 600.554 27.2633L602.512 29.5367ZM646.272 14.24V12.74H645.036L644.8 13.953L646.272 14.24ZM644.432 23.68L642.96 23.393L642.611 25.18H644.432V23.68ZM669.312 23.68L670.784 23.9684L671.134 22.18H669.312V23.68ZM666.992 35.52V37.02H668.227L668.464 35.8084L666.992 35.52ZM642.032 35.52V34.02H640.797L640.56 35.2325L642.032 35.52ZM640.032 45.76L638.56 45.4725L638.211 47.26H640.032V45.76ZM669.392 45.76L670.86 46.0671L671.238 44.26H669.392V45.76ZM666.832 58V59.5H668.051L668.3 58.3071L666.832 58ZM621.952 58L620.481 57.7058L620.122 59.5H621.952V58ZM633.152 2V0.499996H631.922L631.681 1.70582L633.152 2ZM676.992 2L678.462 2.29786L678.826 0.499996H676.992V2ZM674.512 14.24V15.74H675.738L675.982 14.5379L674.512 14.24ZM644.8 13.953L642.96 23.393L645.904 23.967L647.744 14.527L644.8 13.953ZM644.432 25.18H669.312V22.18H644.432V25.18ZM667.84 23.3916L665.52 35.2316L668.464 35.8084L670.784 23.9684L667.84 23.3916ZM666.992 34.02H642.032V37.02H666.992V34.02ZM640.56 35.2325L638.56 45.4725L641.504 46.0475L643.504 35.8075L640.56 35.2325ZM640.032 47.26H669.392V44.26H640.032V47.26ZM667.924 45.4529L665.364 57.6929L668.3 58.3071L670.86 46.0671L667.924 45.4529ZM666.832 56.5H621.952V59.5H666.832V56.5ZM623.423 58.2942L634.623 2.29417L631.681 1.70582L620.481 57.7058L623.423 58.2942ZM633.152 3.5H676.992V0.499996H633.152V3.5ZM675.522 1.70213L673.042 13.9421L675.982 14.5379L678.462 2.29786L675.522 1.70213ZM674.512 12.74H646.272V15.74H674.512V12.74ZM683.382 57.44L682.992 58.8884L683.382 57.44ZM673.222 53.12L671.895 52.4206L671.267 53.6119L672.384 54.3642L673.222 53.12ZM679.462 41.28L680.272 40.0175L678.897 39.1353L678.135 40.5806L679.462 41.28ZM688.502 45.44L688.071 46.8767L688.082 46.8801L688.093 46.8832L688.502 45.44ZM705.142 45.52L705.83 46.8529L705.838 46.8488L705.846 46.8447L705.142 45.52ZM705.382 38.72L704.711 40.0616L704.72 40.0663L704.73 40.0708L705.382 38.72ZM698.342 36.32L698.728 34.8706L698.726 34.8699L698.342 36.32ZM689.302 33.44L688.718 34.8219L688.732 34.8274L688.745 34.8327L689.302 33.44ZM683.062 28.88L681.914 29.8462L681.922 29.8549L681.929 29.8635L683.062 28.88ZM683.782 10.4L684.992 11.2861L685 11.2759L683.782 10.4ZM693.142 3.36L693.708 4.7489L693.142 3.36ZM718.582 2.16L718.223 3.61652L718.234 3.61913L718.245 3.62159L718.582 2.16ZM727.542 5.68L728.889 6.3398L729.487 5.1179L728.33 4.40344L727.542 5.68ZM721.782 17.44L720.979 18.7068L722.393 19.6034L723.129 18.0998L721.782 17.44ZM714.502 14.32L714.09 15.7623L714.107 15.7672L714.124 15.7717L714.502 14.32ZM698.982 14.72L698.25 13.4106L698.242 13.4153L698.233 13.4201L698.982 14.72ZM698.662 21.84L698.01 23.1908L698.662 21.84ZM705.862 24.24L705.481 25.6909L705.49 25.6931L705.498 25.6952L705.862 24.24ZM714.822 27.04L714.254 28.4284L714.265 28.4327L714.822 27.04ZM720.182 49.68L718.974 48.7902L718.972 48.7939L720.182 49.68ZM710.742 56.64L710.182 55.2485L710.175 55.2511L710.742 56.64ZM696.582 57.62C692.063 57.62 687.795 57.0748 683.772 55.9916L682.992 58.8884C687.288 60.0452 691.82 60.62 696.582 60.62V57.62ZM683.772 55.9916C679.717 54.8999 676.496 53.5166 674.06 51.8758L672.384 54.3642C675.174 56.2434 678.727 57.7401 682.992 58.8884L683.772 55.9916ZM674.549 53.8194L680.789 41.9794L678.135 40.5806L671.895 52.4206L674.549 53.8194ZM678.652 42.5425C681.596 44.4309 684.736 45.8764 688.071 46.8767L688.933 44.0033C685.867 43.0836 682.982 41.7558 680.272 40.0175L678.652 42.5425ZM688.093 46.8832C691.421 47.8261 694.758 48.3 698.102 48.3V45.3C695.046 45.3 691.983 44.8673 688.911 43.9968L688.093 46.8832ZM698.102 48.3C701.247 48.3 703.87 47.8645 705.83 46.8529L704.454 44.1871C703.107 44.8822 701.037 45.3 698.102 45.3V48.3ZM705.846 46.8447C707.898 45.7546 709.202 44.0881 709.202 41.84H706.202C706.202 42.6852 705.799 43.4721 704.438 44.1953L705.846 46.8447ZM709.202 41.84C709.202 39.7567 707.921 38.2801 706.034 37.3692L704.73 40.0708C705.936 40.6532 706.202 41.2567 706.202 41.84H709.202ZM706.053 37.3784C704.418 36.561 701.951 35.7299 698.728 34.8706L697.955 37.7694C701.133 38.6168 703.359 39.3856 704.711 40.0616L706.053 37.3784ZM698.726 34.8699C695.134 33.9192 692.183 32.9771 689.859 32.0473L688.745 34.8327C691.22 35.8229 694.296 36.8008 697.958 37.7701L698.726 34.8699ZM689.885 32.0581C687.703 31.1367 685.809 29.7556 684.194 27.8965L681.929 29.8635C683.835 32.0577 686.101 33.7167 688.718 34.8219L689.885 32.0581ZM684.209 27.9138C682.782 26.2195 682.002 23.9235 682.002 20.88H679.002C679.002 24.4498 679.928 27.4872 681.914 29.8462L684.209 27.9138ZM682.002 20.88C682.002 17.1715 683.009 13.9946 684.992 11.2861L682.572 9.51389C680.181 12.7787 679.002 16.5885 679.002 20.88H682.002ZM685 11.2759C686.996 8.50103 689.871 6.31409 693.708 4.7489L692.575 1.9711C688.306 3.71258 684.942 6.21897 682.564 9.5241L685 11.2759ZM693.708 4.7489C697.544 3.18438 702.091 2.38 707.382 2.38V-0.620003C701.793 -0.620003 696.846 0.228947 692.575 1.9711L693.708 4.7489ZM707.382 2.38C711.275 2.38 714.887 2.79529 718.223 3.61652L718.94 0.703476C715.343 -0.181959 711.488 -0.620003 707.382 -0.620003V2.38ZM718.245 3.62159C721.584 4.39224 724.412 5.51138 726.754 6.95655L728.33 4.40344C725.658 2.75528 722.513 1.52776 718.919 0.698412L718.245 3.62159ZM726.195 5.0202L720.435 16.7802L723.129 18.0998L728.889 6.3398L726.195 5.0202ZM722.585 16.1732C720.259 14.698 717.687 13.5983 714.879 12.8683L714.124 15.7717C716.65 16.4284 718.932 17.4087 720.979 18.7068L722.585 16.1732ZM714.914 12.8777C712.164 12.092 709.332 11.7 706.422 11.7V14.7C709.059 14.7 711.613 15.0547 714.09 15.7623L714.914 12.8777ZM706.422 11.7C703.14 11.7 700.373 12.2241 698.25 13.4106L699.714 16.0294C701.217 15.1892 703.41 14.7 706.422 14.7V11.7ZM698.233 13.4201C696.154 14.6175 694.842 16.3547 694.842 18.64H697.842C697.842 17.7253 698.29 16.8491 699.73 16.0199L698.233 13.4201ZM694.842 18.64C694.842 19.6319 695.125 20.5571 695.707 21.3605C696.277 22.1464 697.079 22.7413 698.01 23.1908L699.314 20.4892C698.698 20.192 698.34 19.8802 698.136 19.5995C697.945 19.3362 697.842 19.0347 697.842 18.64H694.842ZM698.01 23.1908C699.691 24.0025 702.205 24.8316 705.481 25.6909L706.242 22.7891C703.012 21.9417 700.726 21.1708 699.314 20.4892L698.01 23.1908ZM705.498 25.6952C709.085 26.5918 711.997 27.5049 714.254 28.4283L715.39 25.6517C712.954 24.6551 709.893 23.7015 706.226 22.7848L705.498 25.6952ZM714.265 28.4327C716.44 29.3028 718.296 30.6275 719.847 32.4212L722.116 30.4588C720.254 28.3059 718.004 26.6972 715.379 25.6473L714.265 28.4327ZM719.847 32.4212C721.268 34.064 722.042 36.2754 722.042 39.2H725.042C725.042 35.7246 724.109 32.7627 722.116 30.4588L719.847 32.4212ZM722.042 39.2C722.042 42.8419 721.015 46.0201 718.974 48.7902L721.389 50.5698C723.828 47.2598 725.042 43.4514 725.042 39.2H722.042ZM718.972 48.7939C716.98 51.5139 714.08 53.6791 710.182 55.2485L711.302 58.0315C715.617 56.2943 719.01 53.8194 721.392 50.5661L718.972 48.7939ZM710.175 55.2511C706.338 56.8163 701.818 57.62 696.582 57.62V60.62C702.119 60.62 707.039 59.7704 711.308 58.0289L710.175 55.2511ZM747.278 14.56L748.748 14.8552L749.109 13.06H747.278V14.56ZM730.078 14.56L728.608 14.2604L728.241 16.06H730.078V14.56ZM732.638 2V0.499996H731.412L731.168 1.70042L732.638 2ZM782.797 2L784.267 2.29957L784.634 0.499996H782.797V2ZM780.237 14.56V16.06H781.463L781.707 14.8596L780.237 14.56ZM763.117 14.56V13.06H761.889L761.647 14.2648L763.117 14.56ZM754.398 58V59.5H755.626L755.868 58.2952L754.398 58ZM738.557 58L737.087 57.7048L736.727 59.5H738.557V58ZM747.278 13.06H730.078V16.06H747.278V13.06ZM731.547 14.8596L734.107 2.29957L731.168 1.70042L728.608 14.2604L731.547 14.8596ZM732.638 3.5H782.797V0.499996H732.638V3.5ZM781.328 1.70042L778.768 14.2604L781.707 14.8596L784.267 2.29957L781.328 1.70042ZM780.237 13.06H763.117V16.06H780.237V13.06ZM761.647 14.2648L752.927 57.7048L755.868 58.2952L764.588 14.8552L761.647 14.2648ZM754.398 56.5H738.557V59.5H754.398V56.5ZM740.028 58.2952L748.748 14.8552L745.807 14.2648L737.087 57.7048L740.028 58.2952Z" fill="#E0E0E0"/>
</svg>
