<svg width="26" height="18" viewBox="0 0 26 18" fill="none" xmlns="http://www.w3.org/2000/svg">
<path d="M10.5223 12.5357V5.79911L17.0045 9.1875L10.5223 12.5357ZM13 0.991071C7.95089 0.991071 4.60268 1.23214 4.60268 1.23214C4.13393 1.28571 3.10268 1.28571 2.19196 2.25C2.19196 2.25 1.45536 2.97321 1.24107 4.63393C0.986607 6.57589 1 8.51786 1 8.51786V10.3393C1 10.3393 0.986607 12.2812 1.24107 14.2232C1.45536 15.8705 2.19196 16.6071 2.19196 16.6071C3.10268 17.558 4.30804 17.5312 4.84375 17.625C4.84375 17.625 6.75893 17.8125 13 17.8661C18.0491 17.8661 21.3973 17.6116 21.3973 17.6116C21.8661 17.558 22.8973 17.558 23.808 16.6071C23.808 16.6071 24.5446 15.8705 24.7589 14.2232C25.0134 12.2812 25 10.3393 25 10.3393V8.51786C25 8.51786 25.0134 6.57589 24.7589 4.63393C24.5446 2.97321 23.808 2.25 23.808 2.25C22.8973 1.28571 21.8661 1.28571 21.3973 1.23214C21.3973 1.23214 18.0491 0.991071 13 0.991071Z" fill="white"/>
</svg>
