<svg width="59" height="59" viewBox="0 0 59 59" fill="none" xmlns="http://www.w3.org/2000/svg">
<mask id="path-1-inside-1_2_186" fill="white">
<path d="M33.5573 31.8773C34.5786 31.5436 35.6941 32.1014 35.8586 33.1631C36.1698 35.1723 35.9669 37.2389 35.2538 39.1655C34.3143 41.7038 32.5443 43.8499 30.2312 45.2554C27.9181 46.6608 25.1978 47.243 22.5121 46.9074C19.8264 46.5718 17.333 45.3381 15.4369 43.4067C13.5407 41.4753 12.3532 38.9596 12.0672 36.2682C11.7812 33.5767 12.4134 30.8676 13.8613 28.5808C15.3091 26.294 17.4875 24.5639 20.0427 23.6713C21.9821 22.9938 24.0521 22.8291 26.0551 23.1773C27.1137 23.3613 27.6508 24.4869 27.2984 25.5019C26.9459 26.5169 25.8334 27.0282 24.7637 26.927C23.6085 26.8177 22.4355 26.957 21.3258 27.3446C19.5992 27.9477 18.1271 29.1169 17.1487 30.6622C16.1703 32.2075 15.7431 34.0382 15.9364 35.857C16.1297 37.6757 16.9321 39.3757 18.2134 40.6809C19.4948 41.986 21.1797 42.8197 22.9945 43.0465C24.8094 43.2732 26.6477 42.8798 28.2107 41.9301C29.7738 40.9804 30.9699 39.5301 31.6048 37.8148C32.0128 36.7125 32.1737 35.5423 32.0857 34.3853C32.0043 33.3139 32.536 32.211 33.5573 31.8773Z"/>
</mask>
<path d="M33.5573 31.8773C34.5786 31.5436 35.6941 32.1014 35.8586 33.1631C36.1698 35.1723 35.9669 37.2389 35.2538 39.1655C34.3143 41.7038 32.5443 43.8499 30.2312 45.2554C27.9181 46.6608 25.1978 47.243 22.5121 46.9074C19.8264 46.5718 17.333 45.3381 15.4369 43.4067C13.5407 41.4753 12.3532 38.9596 12.0672 36.2682C11.7812 33.5767 12.4134 30.8676 13.8613 28.5808C15.3091 26.294 17.4875 24.5639 20.0427 23.6713C21.9821 22.9938 24.0521 22.8291 26.0551 23.1773C27.1137 23.3613 27.6508 24.4869 27.2984 25.5019C26.9459 26.5169 25.8334 27.0282 24.7637 26.927C23.6085 26.8177 22.4355 26.957 21.3258 27.3446C19.5992 27.9477 18.1271 29.1169 17.1487 30.6622C16.1703 32.2075 15.7431 34.0382 15.9364 35.857C16.1297 37.6757 16.9321 39.3757 18.2134 40.6809C19.4948 41.986 21.1797 42.8197 22.9945 43.0465C24.8094 43.2732 26.6477 42.8798 28.2107 41.9301C29.7738 40.9804 30.9699 39.5301 31.6048 37.8148C32.0128 36.7125 32.1737 35.5423 32.0857 34.3853C32.0043 33.3139 32.536 32.211 33.5573 31.8773Z" stroke="#95DE1D" stroke-width="8" stroke-linejoin="round" mask="url(#path-1-inside-1_2_186)"/>
<mask id="path-2-inside-2_2_186" fill="white">
<path d="M42.4016 22.8308C43.2946 22.2403 44.5049 22.4822 45.0216 23.42C47.5647 28.0363 48.5262 33.3804 47.7245 38.6258C46.8249 44.5124 43.769 49.8543 39.1506 53.6134C34.5322 57.3726 28.6812 59.2806 22.7346 58.9666C16.788 58.6526 11.1705 56.1392 6.97361 51.9146C2.77676 47.69 0.30034 42.056 0.0255636 36.1074C-0.249213 30.1589 1.69728 24.3206 5.48681 19.7271C9.27633 15.1336 14.6382 12.1129 20.5306 11.2521C25.7812 10.485 31.1188 11.4817 35.7183 14.0552C36.6526 14.578 36.8866 15.7899 36.2902 16.679C35.6937 17.5682 34.4931 17.7962 33.5508 17.2881C29.7573 15.2424 25.3894 14.4606 21.0911 15.0885C16.1506 15.8103 11.6549 18.343 8.47759 22.1944C5.30026 26.0458 3.66822 30.941 3.89861 35.9285C4.12899 40.9161 6.20535 45.6399 9.72421 49.182C13.2431 52.7241 17.9531 54.8316 22.939 55.0948C27.925 55.3581 32.8307 53.7583 36.703 50.6065C40.5753 47.4546 43.1375 42.9757 43.8919 38.0401C44.5481 33.746 43.7951 29.373 41.7745 25.5662C41.2725 24.6205 41.5085 23.4214 42.4016 22.8308Z"/>
</mask>
<path d="M42.4016 22.8308C43.2946 22.2403 44.5049 22.4822 45.0216 23.42C47.5647 28.0363 48.5262 33.3804 47.7245 38.6258C46.8249 44.5124 43.769 49.8543 39.1506 53.6134C34.5322 57.3726 28.6812 59.2806 22.7346 58.9666C16.788 58.6526 11.1705 56.1392 6.97361 51.9146C2.77676 47.69 0.30034 42.056 0.0255636 36.1074C-0.249213 30.1589 1.69728 24.3206 5.48681 19.7271C9.27633 15.1336 14.6382 12.1129 20.5306 11.2521C25.7812 10.485 31.1188 11.4817 35.7183 14.0552C36.6526 14.578 36.8866 15.7899 36.2902 16.679C35.6937 17.5682 34.4931 17.7962 33.5508 17.2881C29.7573 15.2424 25.3894 14.4606 21.0911 15.0885C16.1506 15.8103 11.6549 18.343 8.47759 22.1944C5.30026 26.0458 3.66822 30.941 3.89861 35.9285C4.12899 40.9161 6.20535 45.6399 9.72421 49.182C13.2431 52.7241 17.9531 54.8316 22.939 55.0948C27.925 55.3581 32.8307 53.7583 36.703 50.6065C40.5753 47.4546 43.1375 42.9757 43.8919 38.0401C44.5481 33.746 43.7951 29.373 41.7745 25.5662C41.2725 24.6205 41.5085 23.4214 42.4016 22.8308Z" stroke="#95DE1D" stroke-width="8" mask="url(#path-2-inside-2_2_186)"/>
<path d="M40.329 18.4999L23.8288 35.0003" stroke="#95DE1D" stroke-width="4" stroke-linecap="round"/>
<path d="M38.8677 8.82183L40.6985 17.1169C40.7878 17.5213 41.117 17.8288 41.5266 17.8903L49.9272 19.1513C50.2528 19.2001 50.5817 19.0856 50.8064 18.8449L55.908 13.3828C56.4705 12.7806 56.104 11.7947 55.2847 11.7061L47.4803 10.8616C47.3919 10.8521 47.3205 10.7853 47.3049 10.6978L45.9303 2.9691C45.786 2.15779 44.7774 1.85941 44.2149 2.46163L39.1134 7.92373C38.8886 8.16438 38.7967 8.50027 38.8677 8.82183Z" stroke="#95DE1D" stroke-width="4"/>
</svg>
